{"glyphs":{"0":{"ha":778,"x_min":69,"x_max":708,"o":"m 389 -12 q 238 31 300 -12 q 140 145 176 74 q 86 303 103 217 q 69 474 69 389 q 80 611 69 542 q 113 743 90 681 q 173 854 136 806 q 263 931 210 903 q 389 960 317 960 q 515 931 461 960 q 605 854 568 903 q 665 743 642 806 q 698 611 688 681 q 708 474 708 542 q 692 303 708 389 q 638 145 675 217 q 540 31 601 74 q 389 -12 479 -12 m 385 86 q 485 123 443 86 q 556 217 528 160 q 598 342 585 275 q 611 469 611 410 q 598 606 611 538 q 558 733 585 675 q 488 827 531 792 q 386 863 444 863 q 286 828 328 863 q 218 740 244 794 q 179 620 192 685 q 167 493 167 556 q 171 396 167 450 q 188 288 175 342 q 225 188 201 233 q 288 114 249 142 q 385 86 328 86 z "},"1":{"ha":399,"x_min":69,"x_max":303,"o":"m 206 0 l 206 846 l 69 846 l 69 931 l 303 956 l 303 0 l 206 0 z "},"2":{"ha":854,"x_min":88,"x_max":753,"o":"m 88 0 l 576 493 q 611 538 597 514 q 632 590 625 563 q 639 646 639 617 q 610 753 639 706 q 531 831 581 801 q 419 860 481 860 q 304 826 356 860 q 225 741 253 793 q 203 631 197 689 l 104 631 q 144 799 100 725 q 262 917 188 874 q 424 960 336 960 q 581 919 508 960 q 699 807 654 878 q 743 644 743 736 q 733 563 743 601 q 702 489 722 524 q 651 424 682 454 l 322 97 l 753 97 l 753 0 l 88 0 z "},"3":{"ha":739,"x_min":69,"x_max":669,"o":"m 357 -14 q 269 -3 311 -14 q 188 31 226 8 q 120 92 150 54 q 69 182 90 129 l 171 210 q 250 117 199 150 q 353 83 301 83 q 503 135 443 83 q 564 276 564 188 q 506 408 564 363 q 357 453 449 453 l 290 453 l 290 554 l 357 554 q 495 593 442 554 q 549 707 549 632 q 492 826 549 785 q 353 868 436 868 q 258 843 306 868 q 185 765 211 818 l 82 790 q 150 890 107 853 q 247 944 193 928 q 357 961 301 961 q 498 931 432 961 q 605 845 564 901 q 646 708 646 789 q 617 592 646 642 q 536 510 589 542 q 634 416 599 475 q 669 275 669 357 q 625 119 669 185 q 509 20 581 54 q 357 -14 438 -14 z "},"4":{"ha":785,"x_min":83,"x_max":715,"o":"m 83 364 l 83 944 l 182 944 l 182 418 l 139 461 l 715 461 l 715 364 l 83 364 m 476 0 l 476 944 l 575 944 l 575 0 l 476 0 z "},"5":{"ha":764,"x_min":93,"x_max":690,"o":"m 369 -17 q 210 26 285 -17 q 93 140 136 68 l 178 190 q 260 110 208 139 q 358 82 311 82 q 486 114 435 82 q 564 196 538 146 q 590 299 590 246 q 562 407 590 357 q 486 488 533 457 q 381 518 439 518 q 302 507 338 518 q 236 474 267 496 l 131 521 l 239 944 l 654 944 l 654 847 l 313 847 l 249 594 q 317 611 285 606 q 381 617 350 617 q 491 595 436 617 q 591 533 546 574 q 663 435 636 493 q 690 306 690 378 q 648 144 690 217 q 533 27 606 71 q 369 -17 460 -17 z "},"6":{"ha":733,"x_min":49,"x_max":685,"o":"m 367 -15 q 207 26 279 -15 q 92 140 135 68 q 49 300 49 211 q 67 406 49 357 q 119 499 85 456 l 489 944 l 617 944 l 328 597 l 356 615 q 527 571 453 611 q 643 462 601 531 q 685 303 685 393 q 642 140 685 213 q 528 26 600 68 q 367 -15 456 -15 m 368 82 q 480 111 431 82 q 558 189 529 140 q 586 296 586 238 q 557 406 586 357 q 479 485 528 456 q 369 515 431 515 q 263 488 314 515 q 179 413 211 461 q 147 300 147 364 q 178 190 147 239 q 259 111 208 140 q 368 82 310 82 z "},"7":{"ha":676,"x_min":42,"x_max":635,"o":"m 114 0 l 504 883 l 529 843 l 42 843 l 42 940 l 635 940 l 219 0 l 114 0 z "},"8":{"ha":731,"x_min":56,"x_max":675,"o":"m 365 -14 q 245 6 301 -14 q 147 63 189 25 q 80 152 104 100 q 56 269 56 204 q 99 408 56 343 q 214 513 142 474 q 130 610 158 560 q 101 715 101 660 q 122 816 101 771 q 178 893 142 861 q 262 942 214 925 q 365 960 310 960 q 470 942 422 960 q 553 892 518 925 q 609 815 589 860 q 629 714 629 769 q 601 610 629 660 q 517 513 574 560 q 633 408 590 474 q 675 272 675 343 q 651 154 675 207 q 585 64 628 101 q 487 6 543 26 q 365 -14 431 -14 m 365 79 q 472 108 425 79 q 547 182 519 136 q 575 281 575 228 q 546 380 575 336 q 469 449 517 424 q 365 474 421 474 q 262 449 310 474 q 185 380 214 424 q 156 281 156 336 q 183 182 156 228 q 258 108 211 136 q 365 79 306 79 m 365 553 q 483 599 436 553 q 529 710 529 646 q 481 822 529 778 q 365 865 433 865 q 249 822 297 865 q 201 710 201 778 q 248 599 201 646 q 365 553 294 553 z "},"9":{"ha":733,"x_min":49,"x_max":685,"o":"m 117 0 l 406 347 l 378 329 q 206 374 281 333 q 90 483 132 414 q 49 642 49 553 q 91 804 49 732 q 206 918 133 876 q 367 960 278 960 q 526 918 454 960 q 642 805 599 876 q 685 644 685 733 q 667 538 685 588 q 614 446 650 489 l 244 0 l 117 0 m 365 429 q 474 458 424 429 q 556 536 525 488 q 586 644 586 585 q 556 755 586 706 q 475 833 525 804 q 365 863 425 863 q 253 833 303 863 q 176 756 204 804 q 147 649 147 707 q 176 539 147 589 q 255 459 206 489 q 365 429 304 429 z "},"A":{"ha":857,"x_min":14,"x_max":843,"o":"m 14 0 l 403 944 l 456 944 l 843 0 l 738 0 l 636 257 l 221 257 l 119 0 l 14 0 m 257 347 l 600 347 l 429 782 l 257 347 z "},"Á":{"ha":857,"x_min":14,"x_max":843,"o":"m 14 0 l 403 944 l 456 944 l 843 0 l 738 0 l 636 257 l 221 257 l 119 0 l 14 0 m 257 347 l 600 347 l 429 782 l 257 347 m 388 1008 l 499 1194 l 604 1194 l 465 1008 l 388 1008 z "},"Ă":{"ha":857,"x_min":14,"x_max":843,"o":"m 14 0 l 403 944 l 456 944 l 843 0 l 738 0 l 636 257 l 221 257 l 119 0 l 14 0 m 257 347 l 600 347 l 429 782 l 257 347 m 622 1192 q 597 1105 622 1146 q 526 1038 571 1064 q 428 1011 482 1011 q 333 1036 378 1011 q 261 1103 289 1061 q 233 1192 233 1144 l 335 1192 q 363 1124 335 1154 q 432 1094 392 1094 q 479 1108 458 1094 q 513 1144 500 1122 q 525 1192 525 1167 l 622 1192 z "},"Â":{"ha":857,"x_min":14,"x_max":843,"o":"m 14 0 l 403 944 l 456 944 l 843 0 l 738 0 l 636 257 l 221 257 l 119 0 l 14 0 m 257 347 l 600 347 l 429 782 l 257 347 m 232 1013 l 385 1197 l 476 1197 l 629 1013 l 531 1013 l 418 1150 l 443 1150 l 331 1013 l 232 1013 z "},"Ä":{"ha":857,"x_min":14,"x_max":843,"o":"m 14 0 l 403 944 l 456 944 l 843 0 l 738 0 l 636 257 l 221 257 l 119 0 l 14 0 m 257 347 l 600 347 l 429 782 l 257 347 m 540 1018 q 497 1036 514 1018 q 479 1081 479 1054 q 497 1124 479 1107 q 540 1142 514 1142 q 585 1124 567 1142 q 603 1081 603 1107 q 585 1036 603 1054 q 540 1018 567 1018 m 315 1018 q 272 1036 289 1018 q 254 1081 254 1054 q 272 1124 254 1107 q 315 1142 289 1142 q 360 1124 342 1142 q 378 1081 378 1107 q 360 1036 378 1054 q 315 1018 342 1018 z "},"À":{"ha":857,"x_min":14,"x_max":843,"o":"m 14 0 l 403 944 l 456 944 l 843 0 l 738 0 l 636 257 l 221 257 l 119 0 l 14 0 m 257 347 l 600 347 l 429 782 l 257 347 m 382 1003 l 229 1201 l 335 1201 l 460 1003 l 382 1003 z "},"Ā":{"ha":857,"x_min":14,"x_max":843,"o":"m 14 0 l 403 944 l 456 944 l 843 0 l 738 0 l 636 257 l 221 257 l 119 0 l 14 0 m 257 347 l 600 347 l 429 782 l 257 347 m 164 1053 l 164 1132 l 696 1132 l 696 1053 l 164 1053 z "},"Ą":{"ha":857,"x_min":14,"x_max":847,"o":"m 14 0 l 403 944 l 456 944 l 843 0 l 738 0 l 636 257 l 221 257 l 119 0 l 14 0 m 257 347 l 600 347 l 429 782 l 257 347 m 771 -196 q 724 -185 746 -196 q 690 -155 703 -174 q 676 -115 676 -136 q 694 -51 676 -82 q 738 1 711 -19 l 818 1 q 774 -44 792 -18 q 756 -90 756 -71 q 768 -115 756 -108 q 790 -122 781 -122 q 816 -115 799 -122 q 846 -97 833 -107 l 847 -174 q 813 -190 833 -185 q 771 -196 793 -196 z "},"Å":{"ha":857,"x_min":14,"x_max":843,"o":"m 14 0 l 403 944 l 456 944 l 843 0 l 738 0 l 636 257 l 221 257 l 119 0 l 14 0 m 257 347 l 600 347 l 429 782 l 257 347 m 438 986 q 361 1006 397 986 q 303 1060 325 1025 q 281 1138 281 1094 q 302 1215 281 1181 q 359 1271 324 1250 q 438 1292 394 1292 q 515 1272 479 1292 q 572 1218 550 1253 q 594 1138 594 1183 q 549 1030 594 1074 q 438 986 503 986 m 439 1067 q 492 1088 471 1067 q 513 1139 513 1108 q 491 1190 513 1169 q 438 1210 469 1210 q 384 1190 406 1210 q 363 1139 363 1169 q 385 1088 363 1108 q 439 1067 408 1067 z "},"Ã":{"ha":857,"x_min":14,"x_max":843,"o":"m 14 0 l 403 944 l 456 944 l 843 0 l 738 0 l 636 257 l 221 257 l 119 0 l 14 0 m 257 347 l 600 347 l 429 782 l 257 347 m 524 999 q 460 1015 490 999 q 405 1055 431 1032 q 357 1094 379 1078 q 318 1111 335 1111 q 283 1095 296 1111 q 267 1057 271 1079 q 264 1015 263 1035 l 196 1015 q 209 1104 194 1065 q 253 1165 224 1143 q 328 1188 283 1188 q 394 1171 364 1188 q 449 1132 424 1154 q 494 1093 475 1110 q 526 1076 514 1076 q 563 1088 551 1076 q 579 1120 575 1099 q 583 1172 583 1142 l 651 1172 q 645 1088 657 1128 q 603 1024 633 1049 q 524 999 574 999 z "},"Æ":{"ha":1147,"x_min":14,"x_max":1064,"o":"m 14 0 l 513 944 l 1064 944 l 1064 853 l 626 853 l 626 515 l 1050 515 l 1050 425 l 626 425 l 626 90 l 1064 90 l 1064 0 l 529 0 l 529 243 l 254 243 l 125 0 l 14 0 m 301 333 l 529 333 l 529 808 l 519 751 l 301 333 z "},"B":{"ha":749,"x_min":104,"x_max":721,"o":"m 104 0 l 104 944 l 360 944 q 515 917 450 944 q 616 841 581 890 q 651 724 651 792 q 626 605 651 661 q 540 521 601 549 q 640 468 600 506 q 700 378 679 431 q 721 264 721 326 q 679 126 721 185 q 564 33 638 67 q 393 0 490 0 l 104 0 m 201 93 l 421 93 q 567 145 511 93 q 624 282 624 197 q 598 373 624 333 q 530 436 572 413 q 436 460 488 460 l 201 460 l 201 93 m 201 557 l 388 557 q 506 592 458 557 q 554 708 554 628 q 506 816 554 781 q 360 851 457 851 l 201 851 l 201 557 z "},"C":{"ha":1026,"x_min":63,"x_max":971,"o":"m 533 -14 q 349 24 435 -14 q 199 130 264 63 q 99 285 135 197 q 63 471 63 372 q 97 656 63 568 q 196 811 132 743 q 346 918 260 879 q 533 957 432 957 q 718 919 632 957 q 869 815 804 882 q 969 657 935 747 l 863 657 q 717 808 807 760 q 519 857 626 857 q 399 831 461 857 q 281 756 336 806 q 193 634 226 706 q 160 471 160 563 q 189 322 160 392 q 269 199 218 251 q 388 116 321 146 q 533 86 456 86 q 729 143 642 86 q 864 289 817 200 l 971 289 q 870 131 936 199 q 717 24 804 63 q 533 -14 631 -14 z "},"Ć":{"ha":1026,"x_min":63,"x_max":971,"o":"m 533 -14 q 349 24 435 -14 q 199 130 264 63 q 99 285 135 197 q 63 471 63 372 q 97 656 63 568 q 196 811 132 743 q 346 918 260 879 q 533 957 432 957 q 718 919 632 957 q 869 815 804 882 q 969 657 935 747 l 863 657 q 717 808 807 760 q 519 857 626 857 q 399 831 461 857 q 281 756 336 806 q 193 634 226 706 q 160 471 160 563 q 189 322 160 392 q 269 199 218 251 q 388 116 321 146 q 533 86 456 86 q 729 143 642 86 q 864 289 817 200 l 971 289 q 870 131 936 199 q 717 24 804 63 q 533 -14 631 -14 m 471 1008 l 582 1194 l 688 1194 l 549 1008 l 471 1008 z "},"Č":{"ha":1026,"x_min":63,"x_max":971,"o":"m 533 -14 q 349 24 435 -14 q 199 130 264 63 q 99 285 135 197 q 63 471 63 372 q 97 656 63 568 q 196 811 132 743 q 346 918 260 879 q 533 957 432 957 q 718 919 632 957 q 869 815 804 882 q 969 657 935 747 l 863 657 q 717 808 807 760 q 519 857 626 857 q 399 831 461 857 q 281 756 336 806 q 193 634 226 706 q 160 471 160 563 q 189 322 160 392 q 269 199 218 251 q 388 116 321 146 q 533 86 456 86 q 729 143 642 86 q 864 289 817 200 l 971 289 q 870 131 936 199 q 717 24 804 63 q 533 -14 631 -14 m 464 1013 l 311 1197 l 410 1197 l 522 1046 l 497 1046 l 610 1197 l 708 1197 l 556 1013 l 464 1013 z "},"Ç":{"ha":1026,"x_min":63,"x_max":971,"o":"m 533 -14 q 349 24 435 -14 q 199 130 264 63 q 99 285 135 197 q 63 471 63 372 q 97 656 63 568 q 196 811 132 743 q 346 918 260 879 q 533 957 432 957 q 718 919 632 957 q 869 815 804 882 q 969 657 935 747 l 863 657 q 717 808 807 760 q 519 857 626 857 q 399 831 461 857 q 281 756 336 806 q 193 634 226 706 q 160 471 160 563 q 189 322 160 392 q 269 199 218 251 q 388 116 321 146 q 533 86 456 86 q 729 143 642 86 q 864 289 817 200 l 971 289 q 870 131 936 199 q 717 24 804 63 q 533 -14 631 -14 m 363 -350 l 397 -278 q 458 -294 428 -287 q 515 -300 488 -300 q 594 -285 561 -300 q 626 -226 626 -269 q 599 -177 626 -194 q 535 -160 572 -160 q 486 -165 511 -160 q 439 -172 461 -169 l 531 31 l 608 32 l 549 -93 q 585 -92 550 -92 q 667 -127 629 -92 q 704 -228 704 -162 q 676 -315 704 -282 q 604 -364 647 -349 q 515 -379 561 -379 q 439 -372 479 -379 q 363 -350 399 -364 z "},"Ċ":{"ha":1026,"x_min":63,"x_max":971,"o":"m 533 -14 q 349 24 435 -14 q 199 130 264 63 q 99 285 135 197 q 63 471 63 372 q 97 656 63 568 q 196 811 132 743 q 346 918 260 879 q 533 957 432 957 q 718 919 632 957 q 869 815 804 882 q 969 657 935 747 l 863 657 q 717 808 807 760 q 519 857 626 857 q 399 831 461 857 q 281 756 336 806 q 193 634 226 706 q 160 471 160 563 q 189 322 160 392 q 269 199 218 251 q 388 116 321 146 q 533 86 456 86 q 729 143 642 86 q 864 289 817 200 l 971 289 q 870 131 936 199 q 717 24 804 63 q 533 -14 631 -14 m 515 1029 q 471 1047 489 1029 q 453 1092 453 1065 q 471 1135 453 1117 q 515 1153 489 1153 q 558 1135 540 1153 q 576 1092 576 1117 q 558 1047 576 1065 q 515 1029 540 1029 z "},"D":{"ha":900,"x_min":104,"x_max":838,"o":"m 104 0 l 104 944 l 351 944 q 536 911 449 944 q 692 816 624 878 q 799 667 760 754 q 838 472 838 581 q 800 284 838 371 q 697 134 763 197 q 542 35 631 71 q 351 0 454 0 l 104 0 m 201 97 l 354 97 q 551 146 464 97 q 691 279 639 194 q 743 472 743 364 q 691 666 743 582 q 551 799 639 750 q 354 847 464 847 l 201 847 l 201 97 z "},"Ď":{"ha":900,"x_min":104,"x_max":838,"o":"m 104 0 l 104 944 l 351 944 q 536 911 449 944 q 692 816 624 878 q 799 667 760 754 q 838 472 838 581 q 800 284 838 371 q 697 134 763 197 q 542 35 631 71 q 351 0 454 0 l 104 0 m 201 97 l 354 97 q 551 146 464 97 q 691 279 639 194 q 743 472 743 364 q 691 666 743 582 q 551 799 639 750 q 354 847 464 847 l 201 847 l 201 97 m 329 1013 l 176 1197 l 275 1197 l 388 1046 l 363 1046 l 475 1197 l 574 1197 l 421 1013 l 329 1013 z "},"Đ":{"ha":900,"x_min":11,"x_max":838,"o":"m 104 0 l 104 410 l 11 410 l 11 489 l 104 489 l 104 944 l 351 944 q 540 910 451 944 q 694 813 628 875 q 799 663 761 750 q 838 472 838 576 q 800 284 838 371 q 697 134 763 197 q 542 35 631 71 q 351 0 454 0 l 104 0 m 201 97 l 354 97 q 551 146 464 97 q 691 279 639 194 q 743 472 743 364 q 691 666 743 582 q 551 799 639 750 q 354 847 464 847 l 201 847 l 201 489 l 449 489 l 449 410 l 201 410 l 201 97 z "},"Ð":{"ha":900,"x_min":11,"x_max":838,"o":"m 104 0 l 104 410 l 11 410 l 11 489 l 104 489 l 104 944 l 351 944 q 540 910 451 944 q 694 813 628 875 q 799 663 761 750 q 838 472 838 576 q 800 284 838 371 q 697 134 763 197 q 542 35 631 71 q 351 0 454 0 l 104 0 m 201 97 l 354 97 q 551 146 464 97 q 691 279 639 194 q 743 472 743 364 q 691 666 743 582 q 551 799 639 750 q 354 847 464 847 l 201 847 l 201 489 l 449 489 l 449 410 l 201 410 l 201 97 z "},"E":{"ha":769,"x_min":104,"x_max":665,"o":"m 104 0 l 104 944 l 665 944 l 665 854 l 201 854 l 201 518 l 651 518 l 651 426 l 201 426 l 201 90 l 665 90 l 665 0 l 104 0 z "},"É":{"ha":769,"x_min":104,"x_max":665,"o":"m 104 0 l 104 944 l 665 944 l 665 854 l 201 854 l 201 518 l 651 518 l 651 426 l 201 426 l 201 90 l 665 90 l 665 0 l 104 0 m 343 1008 l 454 1194 l 560 1194 l 421 1008 l 343 1008 z "},"Ě":{"ha":769,"x_min":104,"x_max":665,"o":"m 104 0 l 104 944 l 665 944 l 665 854 l 201 854 l 201 518 l 651 518 l 651 426 l 201 426 l 201 90 l 665 90 l 665 0 l 104 0 m 336 1013 l 183 1197 l 282 1197 l 394 1046 l 369 1046 l 482 1197 l 581 1197 l 428 1013 l 336 1013 z "},"Ê":{"ha":769,"x_min":104,"x_max":665,"o":"m 104 0 l 104 944 l 665 944 l 665 854 l 201 854 l 201 518 l 651 518 l 651 426 l 201 426 l 201 90 l 665 90 l 665 0 l 104 0 m 188 1013 l 340 1197 l 432 1197 l 585 1013 l 486 1013 l 374 1150 l 399 1150 l 286 1013 l 188 1013 z "},"Ë":{"ha":769,"x_min":104,"x_max":665,"o":"m 104 0 l 104 944 l 665 944 l 665 854 l 201 854 l 201 518 l 651 518 l 651 426 l 201 426 l 201 90 l 665 90 l 665 0 l 104 0 m 496 1018 q 452 1036 469 1018 q 435 1081 435 1054 q 452 1124 435 1107 q 496 1142 469 1142 q 540 1124 522 1142 q 558 1081 558 1107 q 540 1036 558 1054 q 496 1018 522 1018 m 271 1018 q 227 1036 244 1018 q 210 1081 210 1054 q 227 1124 210 1107 q 271 1142 244 1142 q 315 1124 297 1142 q 333 1081 333 1107 q 315 1036 333 1054 q 271 1018 297 1018 z "},"Ė":{"ha":769,"x_min":104,"x_max":665,"o":"m 104 0 l 104 944 l 665 944 l 665 854 l 201 854 l 201 518 l 651 518 l 651 426 l 201 426 l 201 90 l 665 90 l 665 0 l 104 0 m 388 1029 q 343 1047 361 1029 q 325 1092 325 1065 q 343 1135 325 1117 q 388 1153 361 1153 q 431 1135 413 1153 q 449 1092 449 1117 q 431 1047 449 1065 q 388 1029 413 1029 z "},"È":{"ha":769,"x_min":104,"x_max":665,"o":"m 104 0 l 104 944 l 665 944 l 665 854 l 201 854 l 201 518 l 651 518 l 651 426 l 201 426 l 201 90 l 665 90 l 665 0 l 104 0 m 338 1003 l 185 1201 l 290 1201 l 415 1003 l 338 1003 z "},"Ē":{"ha":769,"x_min":104,"x_max":665,"o":"m 104 0 l 104 944 l 665 944 l 665 854 l 201 854 l 201 518 l 651 518 l 651 426 l 201 426 l 201 90 l 665 90 l 665 0 l 104 0 m 119 1053 l 119 1132 l 651 1132 l 651 1053 l 119 1053 z "},"Ę":{"ha":769,"x_min":104,"x_max":665,"o":"m 104 0 l 104 944 l 665 944 l 665 854 l 201 854 l 201 518 l 651 518 l 651 426 l 201 426 l 201 90 l 665 90 l 665 0 l 104 0 m 569 -194 q 523 -183 544 -194 q 488 -153 501 -172 q 475 -114 475 -135 q 492 -49 475 -81 q 536 3 510 -18 l 617 3 q 572 -43 590 -17 q 554 -89 554 -69 q 567 -114 554 -107 q 589 -121 579 -121 q 615 -113 597 -121 q 644 -96 632 -106 l 646 -172 q 612 -189 632 -183 q 569 -194 592 -194 z "},"F":{"ha":693,"x_min":104,"x_max":665,"o":"m 104 0 l 104 944 l 665 944 l 665 854 l 201 854 l 201 518 l 651 518 l 651 426 l 201 426 l 201 0 l 104 0 z "},"G":{"ha":1099,"x_min":63,"x_max":1036,"o":"m 549 -11 q 361 26 449 -11 q 206 131 274 64 q 101 286 139 197 q 63 476 63 375 q 99 660 63 572 q 201 815 136 747 q 352 923 265 883 q 539 963 439 963 q 750 919 654 963 q 915 797 846 875 q 1015 614 985 718 l 913 614 q 770 797 868 729 q 549 865 672 865 q 397 835 468 865 q 273 752 326 806 q 190 628 219 699 q 160 476 160 558 q 190 326 160 396 q 272 201 219 256 q 396 117 325 147 q 549 86 467 86 q 711 119 635 86 q 844 214 788 153 q 928 357 900 275 l 544 357 l 544 442 l 1036 442 l 1026 383 q 967 222 1011 294 q 856 98 922 150 q 712 17 790 46 q 549 -11 633 -11 z "},"Ğ":{"ha":1099,"x_min":63,"x_max":1036,"o":"m 549 -11 q 361 26 449 -11 q 206 131 274 64 q 101 286 139 197 q 63 476 63 375 q 99 660 63 572 q 201 815 136 747 q 352 923 265 883 q 539 963 439 963 q 750 919 654 963 q 915 797 846 875 q 1015 614 985 718 l 913 614 q 770 797 868 729 q 549 865 672 865 q 397 835 468 865 q 273 752 326 806 q 190 628 219 699 q 160 476 160 558 q 190 326 160 396 q 272 201 219 256 q 396 117 325 147 q 549 86 467 86 q 711 119 635 86 q 844 214 788 153 q 928 357 900 275 l 544 357 l 544 442 l 1036 442 l 1026 383 q 967 222 1011 294 q 856 98 922 150 q 712 17 790 46 q 549 -11 633 -11 m 731 1204 q 705 1117 731 1158 q 635 1050 679 1076 q 536 1024 590 1024 q 442 1049 486 1024 q 369 1115 397 1074 q 342 1204 342 1157 l 443 1204 q 472 1137 443 1167 q 540 1107 500 1107 q 588 1121 567 1107 q 621 1157 608 1135 q 633 1204 633 1179 l 731 1204 z "},"Ģ":{"ha":1099,"x_min":63,"x_max":1036,"o":"m 549 -11 q 361 26 449 -11 q 206 131 274 64 q 101 286 139 197 q 63 476 63 375 q 99 660 63 572 q 201 815 136 747 q 352 923 265 883 q 539 963 439 963 q 750 919 654 963 q 915 797 846 875 q 1015 614 985 718 l 913 614 q 770 797 868 729 q 549 865 672 865 q 397 835 468 865 q 273 752 326 806 q 190 628 219 699 q 160 476 160 558 q 190 326 160 396 q 272 201 219 256 q 396 117 325 147 q 549 86 467 86 q 711 119 635 86 q 844 214 788 153 q 928 357 900 275 l 544 357 l 544 442 l 1036 442 l 1026 383 q 967 222 1011 294 q 856 98 922 150 q 712 17 790 46 q 549 -11 633 -11 m 390 -262 l 501 -76 l 607 -76 l 468 -262 l 390 -262 z "},"Ġ":{"ha":1099,"x_min":63,"x_max":1036,"o":"m 549 -11 q 361 26 449 -11 q 206 131 274 64 q 101 286 139 197 q 63 476 63 375 q 99 660 63 572 q 201 815 136 747 q 352 923 265 883 q 539 963 439 963 q 750 919 654 963 q 915 797 846 875 q 1015 614 985 718 l 913 614 q 770 797 868 729 q 549 865 672 865 q 397 835 468 865 q 273 752 326 806 q 190 628 219 699 q 160 476 160 558 q 190 326 160 396 q 272 201 219 256 q 396 117 325 147 q 549 86 467 86 q 711 119 635 86 q 844 214 788 153 q 928 357 900 275 l 544 357 l 544 442 l 1036 442 l 1026 383 q 967 222 1011 294 q 856 98 922 150 q 712 17 790 46 q 549 -11 633 -11 m 540 1042 q 496 1060 514 1042 q 478 1104 478 1078 q 496 1147 478 1129 q 540 1165 514 1165 q 583 1147 565 1165 q 601 1104 601 1129 q 583 1060 601 1078 q 540 1042 565 1042 z "},"H":{"ha":832,"x_min":104,"x_max":728,"o":"m 104 0 l 104 944 l 201 944 l 201 519 l 631 519 l 631 944 l 728 944 l 728 0 l 631 0 l 631 422 l 201 422 l 201 0 l 104 0 z "},"Ħ":{"ha":832,"x_min":-29,"x_max":865,"o":"m 104 0 l 104 944 l 201 944 l 201 519 l 631 519 l 631 944 l 728 944 l 728 0 l 631 0 l 631 422 l 201 422 l 201 0 l 104 0 m -29 688 l -29 768 l 865 768 l 865 688 l -29 688 z "},"I":{"ha":417,"x_min":56,"x_max":361,"o":"m 56 0 l 56 90 l 160 90 l 160 854 l 56 854 l 56 944 l 361 944 l 361 854 l 257 854 l 257 90 l 361 90 l 361 0 l 56 0 z "},"Í":{"ha":417,"x_min":56,"x_max":375,"o":"m 56 0 l 56 90 l 160 90 l 160 854 l 56 854 l 56 944 l 361 944 l 361 854 l 257 854 l 257 90 l 361 90 l 361 0 l 56 0 m 158 1008 l 269 1194 l 375 1194 l 236 1008 l 158 1008 z "},"Î":{"ha":417,"x_min":3,"x_max":400,"o":"m 56 0 l 56 90 l 160 90 l 160 854 l 56 854 l 56 944 l 361 944 l 361 854 l 257 854 l 257 90 l 361 90 l 361 0 l 56 0 m 3 1013 l 156 1197 l 247 1197 l 400 1013 l 301 1013 l 189 1150 l 214 1150 l 101 1013 l 3 1013 z "},"Ï":{"ha":417,"x_min":25,"x_max":374,"o":"m 56 0 l 56 90 l 160 90 l 160 854 l 56 854 l 56 944 l 361 944 l 361 854 l 257 854 l 257 90 l 361 90 l 361 0 l 56 0 m 311 1018 q 267 1036 285 1018 q 250 1081 250 1054 q 267 1124 250 1107 q 311 1142 285 1142 q 356 1124 338 1142 q 374 1081 374 1107 q 356 1036 374 1054 q 311 1018 338 1018 m 86 1018 q 42 1036 60 1018 q 25 1081 25 1054 q 42 1124 25 1107 q 86 1142 60 1142 q 131 1124 113 1142 q 149 1081 149 1107 q 131 1036 149 1054 q 86 1018 113 1018 z "},"İ":{"ha":417,"x_min":56,"x_max":361,"o":"m 56 0 l 56 90 l 160 90 l 160 854 l 56 854 l 56 944 l 361 944 l 361 854 l 257 854 l 257 90 l 361 90 l 361 0 l 56 0 m 203 1029 q 158 1047 176 1029 q 140 1092 140 1065 q 158 1135 140 1117 q 203 1153 176 1153 q 246 1135 228 1153 q 264 1092 264 1117 q 246 1047 264 1065 q 203 1029 228 1029 z "},"Ì":{"ha":417,"x_min":0,"x_max":361,"o":"m 56 0 l 56 90 l 160 90 l 160 854 l 56 854 l 56 944 l 361 944 l 361 854 l 257 854 l 257 90 l 361 90 l 361 0 l 56 0 m 153 1003 l 0 1201 l 106 1201 l 231 1003 l 153 1003 z "},"Ī":{"ha":417,"x_min":-65,"x_max":467,"o":"m 56 0 l 56 90 l 160 90 l 160 854 l 56 854 l 56 944 l 361 944 l 361 854 l 257 854 l 257 90 l 361 90 l 361 0 l 56 0 m -65 1053 l -65 1132 l 467 1132 l 467 1053 l -65 1053 z "},"Į":{"ha":417,"x_min":56,"x_max":365,"o":"m 56 0 l 56 90 l 160 90 l 160 854 l 56 854 l 56 944 l 361 944 l 361 854 l 257 854 l 257 90 l 361 90 l 361 0 l 56 0 m 289 -194 q 242 -183 264 -194 q 208 -153 221 -172 q 194 -114 194 -135 q 212 -49 194 -81 q 256 3 229 -18 l 336 3 q 292 -43 310 -17 q 274 -89 274 -69 q 286 -114 274 -107 q 308 -121 299 -121 q 334 -113 317 -121 q 364 -96 351 -106 l 365 -172 q 331 -189 351 -183 q 289 -194 311 -194 z "},"J":{"ha":529,"x_min":42,"x_max":446,"o":"m 219 -11 q 167 -3 193 -11 q 119 19 142 6 q 78 49 97 32 q 42 85 58 67 l 99 165 q 132 131 111 150 q 176 98 153 111 q 221 85 200 85 q 275 94 251 85 q 315 122 299 103 q 340 169 332 140 q 349 236 349 197 l 349 944 l 446 944 l 446 236 q 415 97 446 151 q 332 15 383 42 q 219 -11 281 -11 z "},"K":{"ha":658,"x_min":104,"x_max":644,"o":"m 104 0 l 104 944 l 201 944 l 201 501 l 519 944 l 644 944 l 297 472 l 644 0 l 519 0 l 201 443 l 201 0 l 104 0 z "},"Ķ":{"ha":658,"x_min":104,"x_max":644,"o":"m 104 0 l 104 944 l 201 944 l 201 501 l 519 944 l 644 944 l 297 472 l 644 0 l 519 0 l 201 443 l 201 0 l 104 0 m 185 -243 l 296 -57 l 401 -57 l 263 -243 l 185 -243 z "},"L":{"ha":650,"x_min":104,"x_max":594,"o":"m 104 0 l 104 944 l 201 944 l 201 97 l 594 97 l 594 0 l 104 0 z "},"Ĺ":{"ha":650,"x_min":104,"x_max":594,"o":"m 104 0 l 104 944 l 201 944 l 201 97 l 594 97 l 594 0 l 104 0 m 106 1008 l 217 1194 l 322 1194 l 183 1008 l 106 1008 z "},"Ľ":{"ha":650,"x_min":104,"x_max":594,"o":"m 104 0 l 104 944 l 201 944 l 201 97 l 594 97 l 594 0 l 104 0 m 276 681 l 308 944 l 404 944 l 344 681 l 276 681 z "},"Ļ":{"ha":650,"x_min":104,"x_max":594,"o":"m 104 0 l 104 944 l 201 944 l 201 97 l 594 97 l 594 0 l 104 0 m 165 -250 l 276 -64 l 382 -64 l 243 -250 l 165 -250 z "},"Ł":{"ha":650,"x_min":-43,"x_max":594,"o":"m 104 0 l 104 944 l 201 944 l 201 97 l 594 97 l 594 0 l 104 0 m -43 267 l -43 347 l 357 347 l 357 267 l -43 267 z "},"M":{"ha":1088,"x_min":14,"x_max":1074,"o":"m 14 0 l 221 947 l 258 947 l 544 199 l 831 947 l 867 947 l 1074 0 l 975 0 l 828 672 l 568 6 l 521 6 l 260 672 l 114 0 l 14 0 z "},"N":{"ha":836,"x_min":104,"x_max":732,"o":"m 104 0 l 104 944 l 146 944 l 635 250 l 635 944 l 732 944 l 732 1 l 690 1 l 201 696 l 201 0 l 104 0 z "},"Ń":{"ha":836,"x_min":104,"x_max":732,"o":"m 104 0 l 104 944 l 146 944 l 635 250 l 635 944 l 732 944 l 732 1 l 690 1 l 201 696 l 201 0 l 104 0 m 349 999 l 460 1185 l 565 1185 l 426 999 l 349 999 z "},"Ň":{"ha":836,"x_min":104,"x_max":732,"o":"m 104 0 l 104 944 l 146 944 l 635 250 l 635 944 l 732 944 l 732 1 l 690 1 l 201 696 l 201 0 l 104 0 m 342 1003 l 189 1188 l 288 1188 l 400 1036 l 375 1036 l 488 1188 l 586 1188 l 433 1003 l 342 1003 z "},"Ņ":{"ha":836,"x_min":104,"x_max":732,"o":"m 104 0 l 104 944 l 146 944 l 635 250 l 635 944 l 732 944 l 732 1 l 690 1 l 201 696 l 201 0 l 104 0 m 283 -250 l 394 -64 l 500 -64 l 361 -250 l 283 -250 z "},"Ñ":{"ha":836,"x_min":104,"x_max":732,"o":"m 104 0 l 104 944 l 146 944 l 635 250 l 635 944 l 732 944 l 732 1 l 690 1 l 201 696 l 201 0 l 104 0 m 485 989 q 422 1006 451 989 q 366 1045 392 1022 q 318 1085 340 1068 q 279 1101 296 1101 q 244 1085 257 1101 q 228 1047 232 1069 q 225 1006 224 1025 l 157 1006 q 170 1094 156 1056 q 215 1156 185 1133 q 289 1178 244 1178 q 355 1161 325 1178 q 410 1122 385 1144 q 456 1083 436 1100 q 488 1067 475 1067 q 524 1078 513 1067 q 540 1110 536 1089 q 544 1163 544 1132 l 613 1163 q 606 1078 618 1118 q 565 1014 594 1039 q 485 989 535 989 z "},"Ŋ":{"ha":836,"x_min":104,"x_max":732,"o":"m 538 -243 l 521 -243 l 521 -149 q 604 -114 574 -149 q 635 -24 635 -79 l 635 188 l 732 188 l 732 -22 q 707 -131 732 -81 q 638 -212 682 -182 q 538 -243 594 -243 m 104 0 l 104 944 l 146 944 l 635 250 l 635 944 l 732 944 l 732 1 l 690 1 l 201 696 l 201 0 l 104 0 z "},"O":{"ha":1096,"x_min":63,"x_max":1033,"o":"m 547 -11 q 360 27 447 -11 q 206 133 272 65 q 101 288 139 200 q 63 475 63 375 q 100 663 63 575 q 205 817 138 750 q 360 922 272 885 q 547 960 447 960 q 737 922 649 960 q 892 818 825 885 q 996 664 958 751 q 1033 475 1033 576 q 994 283 1033 371 q 888 128 956 194 q 732 26 819 63 q 547 -11 644 -11 m 547 86 q 699 116 629 86 q 823 199 769 146 q 906 324 876 253 q 936 475 936 394 q 906 626 936 556 q 823 749 876 696 q 699 833 769 803 q 547 863 628 863 q 397 833 467 863 q 273 749 326 803 q 190 626 219 696 q 160 475 160 556 q 190 324 160 394 q 273 199 219 253 q 397 116 326 146 q 547 86 467 86 z "},"Ó":{"ha":1096,"x_min":63,"x_max":1033,"o":"m 547 -11 q 360 27 447 -11 q 206 133 272 65 q 101 288 139 200 q 63 475 63 375 q 100 663 63 575 q 205 817 138 750 q 360 922 272 885 q 547 960 447 960 q 737 922 649 960 q 892 818 825 885 q 996 664 958 751 q 1033 475 1033 576 q 994 283 1033 371 q 888 128 956 194 q 732 26 819 63 q 547 -11 644 -11 m 547 86 q 699 116 629 86 q 823 199 769 146 q 906 324 876 253 q 936 475 936 394 q 906 626 936 556 q 823 749 876 696 q 699 833 769 803 q 547 863 628 863 q 397 833 467 863 q 273 749 326 803 q 190 626 219 696 q 160 475 160 556 q 190 324 160 394 q 273 199 219 253 q 397 116 326 146 q 547 86 467 86 m 507 1025 l 618 1211 l 724 1211 l 585 1025 l 507 1025 z "},"Ô":{"ha":1096,"x_min":63,"x_max":1033,"o":"m 547 -11 q 360 27 447 -11 q 206 133 272 65 q 101 288 139 200 q 63 475 63 375 q 100 663 63 575 q 205 817 138 750 q 360 922 272 885 q 547 960 447 960 q 737 922 649 960 q 892 818 825 885 q 996 664 958 751 q 1033 475 1033 576 q 994 283 1033 371 q 888 128 956 194 q 732 26 819 63 q 547 -11 644 -11 m 547 86 q 699 116 629 86 q 823 199 769 146 q 906 324 876 253 q 936 475 936 394 q 906 626 936 556 q 823 749 876 696 q 699 833 769 803 q 547 863 628 863 q 397 833 467 863 q 273 749 326 803 q 190 626 219 696 q 160 475 160 556 q 190 324 160 394 q 273 199 219 253 q 397 116 326 146 q 547 86 467 86 m 351 1029 l 504 1214 l 596 1214 l 749 1029 l 650 1029 l 538 1167 l 563 1167 l 450 1029 l 351 1029 z "},"Ö":{"ha":1096,"x_min":63,"x_max":1033,"o":"m 547 -11 q 360 27 447 -11 q 206 133 272 65 q 101 288 139 200 q 63 475 63 375 q 100 663 63 575 q 205 817 138 750 q 360 922 272 885 q 547 960 447 960 q 737 922 649 960 q 892 818 825 885 q 996 664 958 751 q 1033 475 1033 576 q 994 283 1033 371 q 888 128 956 194 q 732 26 819 63 q 547 -11 644 -11 m 547 86 q 699 116 629 86 q 823 199 769 146 q 906 324 876 253 q 936 475 936 394 q 906 626 936 556 q 823 749 876 696 q 699 833 769 803 q 547 863 628 863 q 397 833 467 863 q 273 749 326 803 q 190 626 219 696 q 160 475 160 556 q 190 324 160 394 q 273 199 219 253 q 397 116 326 146 q 547 86 467 86 m 660 1035 q 616 1053 633 1035 q 599 1097 599 1071 q 616 1141 599 1124 q 660 1158 633 1158 q 704 1141 686 1158 q 722 1097 722 1124 q 704 1053 722 1071 q 660 1035 686 1035 m 435 1035 q 391 1053 408 1035 q 374 1097 374 1071 q 391 1141 374 1124 q 435 1158 408 1158 q 479 1141 461 1158 q 497 1097 497 1124 q 479 1053 497 1071 q 435 1035 461 1035 z "},"Ò":{"ha":1096,"x_min":63,"x_max":1033,"o":"m 547 -11 q 360 27 447 -11 q 206 133 272 65 q 101 288 139 200 q 63 475 63 375 q 100 663 63 575 q 205 817 138 750 q 360 922 272 885 q 547 960 447 960 q 737 922 649 960 q 892 818 825 885 q 996 664 958 751 q 1033 475 1033 576 q 994 283 1033 371 q 888 128 956 194 q 732 26 819 63 q 547 -11 644 -11 m 547 86 q 699 116 629 86 q 823 199 769 146 q 906 324 876 253 q 936 475 936 394 q 906 626 936 556 q 823 749 876 696 q 699 833 769 803 q 547 863 628 863 q 397 833 467 863 q 273 749 326 803 q 190 626 219 696 q 160 475 160 556 q 190 324 160 394 q 273 199 219 253 q 397 116 326 146 q 547 86 467 86 m 501 1019 l 349 1218 l 454 1218 l 579 1019 l 501 1019 z "},"Ő":{"ha":1096,"x_min":63,"x_max":1033,"o":"m 547 -11 q 360 27 447 -11 q 206 133 272 65 q 101 288 139 200 q 63 475 63 375 q 100 663 63 575 q 205 817 138 750 q 360 922 272 885 q 547 960 447 960 q 737 922 649 960 q 892 818 825 885 q 996 664 958 751 q 1033 475 1033 576 q 994 283 1033 371 q 888 128 956 194 q 732 26 819 63 q 547 -11 644 -11 m 547 86 q 699 116 629 86 q 823 199 769 146 q 906 324 876 253 q 936 475 936 394 q 906 626 936 556 q 823 749 876 696 q 699 833 769 803 q 547 863 628 863 q 397 833 467 863 q 273 749 326 803 q 190 626 219 696 q 160 475 160 556 q 190 324 160 394 q 273 199 219 253 q 397 116 326 146 q 547 86 467 86 m 411 1019 l 494 1218 l 593 1218 l 482 1019 l 411 1019 m 565 1019 l 649 1218 l 747 1218 l 636 1019 l 565 1019 z "},"Ō":{"ha":1096,"x_min":63,"x_max":1033,"o":"m 547 -11 q 360 27 447 -11 q 206 133 272 65 q 101 288 139 200 q 63 475 63 375 q 100 663 63 575 q 205 817 138 750 q 360 922 272 885 q 547 960 447 960 q 737 922 649 960 q 892 818 825 885 q 996 664 958 751 q 1033 475 1033 576 q 994 283 1033 371 q 888 128 956 194 q 732 26 819 63 q 547 -11 644 -11 m 547 86 q 699 116 629 86 q 823 199 769 146 q 906 324 876 253 q 936 475 936 394 q 906 626 936 556 q 823 749 876 696 q 699 833 769 803 q 547 863 628 863 q 397 833 467 863 q 273 749 326 803 q 190 626 219 696 q 160 475 160 556 q 190 324 160 394 q 273 199 219 253 q 397 116 326 146 q 547 86 467 86 m 283 1069 l 283 1149 l 815 1149 l 815 1069 l 283 1069 z "},"Ø":{"ha":1096,"x_min":63,"x_max":1033,"o":"m 547 -11 q 365 25 446 -11 q 233 104 285 61 l 172 43 l 118 97 l 179 158 q 97 294 132 214 q 63 475 63 375 q 99 658 63 571 q 201 814 135 746 q 355 921 267 882 q 547 960 443 960 q 719 929 639 960 q 864 843 800 899 l 924 901 l 978 847 l 918 789 q 1004 643 975 722 q 1033 475 1033 564 q 994 281 1033 369 q 886 126 954 192 q 731 25 818 61 q 547 -11 643 -11 m 547 86 q 699 116 629 86 q 823 199 769 146 q 906 324 876 253 q 936 475 936 394 q 915 606 936 544 q 850 719 893 667 l 303 174 q 417 108 356 131 q 547 86 478 86 m 249 228 l 796 774 q 681 840 743 818 q 547 863 618 863 q 397 833 467 863 q 273 749 326 803 q 190 626 219 696 q 160 475 160 556 q 182 342 160 404 q 249 228 204 281 z "},"Õ":{"ha":1096,"x_min":63,"x_max":1033,"o":"m 547 -11 q 360 27 447 -11 q 206 133 272 65 q 101 288 139 200 q 63 475 63 375 q 100 663 63 575 q 205 817 138 750 q 360 922 272 885 q 547 960 447 960 q 737 922 649 960 q 892 818 825 885 q 996 664 958 751 q 1033 475 1033 576 q 994 283 1033 371 q 888 128 956 194 q 732 26 819 63 q 547 -11 644 -11 m 547 86 q 699 116 629 86 q 823 199 769 146 q 906 324 876 253 q 936 475 936 394 q 906 626 936 556 q 823 749 876 696 q 699 833 769 803 q 547 863 628 863 q 397 833 467 863 q 273 749 326 803 q 190 626 219 696 q 160 475 160 556 q 190 324 160 394 q 273 199 219 253 q 397 116 326 146 q 547 86 467 86 m 643 1015 q 580 1032 610 1015 q 524 1072 550 1049 q 476 1111 499 1094 q 438 1128 454 1128 q 403 1112 415 1128 q 386 1074 390 1096 q 383 1032 382 1051 l 315 1032 q 328 1121 314 1082 q 373 1182 343 1160 q 447 1204 403 1204 q 513 1188 483 1204 q 569 1149 543 1171 q 614 1110 594 1126 q 646 1093 633 1093 q 683 1104 671 1093 q 699 1137 694 1115 q 703 1189 703 1158 l 771 1189 q 765 1105 776 1144 q 723 1040 753 1065 q 643 1015 693 1015 z "},"Œ":{"ha":1386,"x_min":104,"x_max":1301,"o":"m 590 0 q 402 35 490 0 q 247 132 314 69 q 142 281 181 194 q 104 472 104 368 q 142 661 104 575 q 245 810 179 747 q 400 909 311 874 q 590 944 489 944 l 1301 944 l 1301 854 l 838 854 l 838 518 l 1288 518 l 1288 426 l 838 426 l 838 90 l 1301 90 l 1301 0 l 590 0 m 588 97 l 740 97 l 740 847 l 588 847 q 391 799 479 847 q 251 666 303 750 q 199 472 199 582 q 251 279 199 364 q 391 146 303 194 q 588 97 479 97 z "},"P":{"ha":735,"x_min":104,"x_max":707,"o":"m 104 0 l 104 944 l 407 944 q 557 909 489 944 q 666 810 625 874 q 707 660 707 746 q 667 512 707 576 q 559 410 626 447 q 407 374 492 374 l 201 374 l 201 0 l 104 0 m 201 465 l 421 465 q 519 492 476 465 q 585 563 561 518 q 610 663 610 608 q 587 762 610 719 q 522 828 564 804 q 421 853 479 853 l 201 853 l 201 465 z "},"Þ":{"ha":735,"x_min":104,"x_max":707,"o":"m 104 0 l 104 944 l 201 944 l 201 806 l 407 806 q 557 770 489 806 q 666 671 625 735 q 707 521 707 607 q 667 374 707 439 q 560 272 628 308 q 407 235 492 235 l 201 235 l 201 0 l 104 0 m 201 326 l 421 326 q 520 353 478 326 q 586 425 563 381 q 610 524 610 469 q 587 622 610 579 q 522 690 564 665 q 421 714 479 714 l 201 714 l 201 326 z "},"Q":{"ha":1089,"x_min":63,"x_max":1033,"o":"m 547 -11 q 360 27 447 -11 q 206 133 272 65 q 101 288 139 200 q 63 475 63 375 q 100 663 63 575 q 205 817 138 750 q 360 922 272 885 q 547 960 447 960 q 737 922 649 960 q 892 818 825 885 q 996 664 958 751 q 1033 475 1033 576 q 994 283 1033 371 q 888 128 956 194 q 732 26 819 63 q 547 -11 644 -11 m 896 -4 l 540 368 l 672 368 l 1025 -4 l 896 -4 m 547 86 q 699 116 629 86 q 823 199 769 146 q 906 324 876 253 q 936 475 936 394 q 906 626 936 556 q 823 749 876 696 q 699 833 769 803 q 547 863 628 863 q 397 833 467 863 q 273 749 326 803 q 190 626 219 696 q 160 475 160 556 q 190 324 160 394 q 273 199 219 253 q 397 116 326 146 q 547 86 467 86 z "},"R":{"ha":756,"x_min":104,"x_max":722,"o":"m 104 0 l 104 944 l 407 944 q 560 908 492 944 q 667 806 628 871 q 707 660 707 742 q 669 517 707 579 q 570 417 632 454 q 432 375 508 381 l 722 0 l 592 0 l 315 374 l 201 374 l 201 0 l 104 0 m 201 467 l 421 467 q 522 494 479 467 q 587 565 564 521 q 610 663 610 610 q 587 759 610 717 q 522 826 564 801 q 421 851 481 851 l 201 851 l 201 467 z "},"Ŕ":{"ha":756,"x_min":104,"x_max":722,"o":"m 104 0 l 104 944 l 407 944 q 560 908 492 944 q 667 806 628 871 q 707 660 707 742 q 669 517 707 579 q 570 417 632 454 q 432 375 508 381 l 722 0 l 592 0 l 315 374 l 201 374 l 201 0 l 104 0 m 201 467 l 421 467 q 522 494 479 467 q 587 565 564 521 q 610 663 610 610 q 587 759 610 717 q 522 826 564 801 q 421 851 481 851 l 201 851 l 201 467 m 299 1008 l 410 1194 l 515 1194 l 376 1008 l 299 1008 z "},"Ř":{"ha":756,"x_min":104,"x_max":722,"o":"m 104 0 l 104 944 l 407 944 q 560 908 492 944 q 667 806 628 871 q 707 660 707 742 q 669 517 707 579 q 570 417 632 454 q 432 375 508 381 l 722 0 l 592 0 l 315 374 l 201 374 l 201 0 l 104 0 m 201 467 l 421 467 q 522 494 479 467 q 587 565 564 521 q 610 663 610 610 q 587 759 610 717 q 522 826 564 801 q 421 851 481 851 l 201 851 l 201 467 m 292 1013 l 139 1197 l 238 1197 l 350 1046 l 325 1046 l 438 1197 l 536 1197 l 383 1013 l 292 1013 z "},"Ŗ":{"ha":756,"x_min":104,"x_max":722,"o":"m 104 0 l 104 944 l 407 944 q 560 908 492 944 q 667 806 628 871 q 707 660 707 742 q 669 517 707 579 q 570 417 632 454 q 432 375 508 381 l 722 0 l 592 0 l 315 374 l 201 374 l 201 0 l 104 0 m 201 467 l 421 467 q 522 494 479 467 q 587 565 564 521 q 610 663 610 610 q 587 759 610 717 q 522 826 564 801 q 421 851 481 851 l 201 851 l 201 467 m 203 -236 l 314 -50 l 419 -50 l 281 -236 l 203 -236 z "},"S":{"ha":797,"x_min":51,"x_max":761,"o":"m 415 -18 q 274 -3 336 -18 q 167 41 213 11 q 93 116 122 71 q 51 221 64 161 l 167 221 q 206 138 176 171 q 288 88 236 104 q 415 71 340 71 q 538 88 482 71 q 627 146 593 106 q 661 253 661 186 q 631 331 661 299 q 555 385 601 364 q 458 422 508 407 q 367 446 408 436 q 240 486 294 463 q 150 541 186 510 q 96 610 114 572 q 78 693 78 647 q 102 810 78 760 q 169 893 126 860 q 269 942 213 926 q 390 958 326 958 q 514 946 460 958 q 609 908 568 933 q 677 843 650 882 q 717 753 704 804 l 611 753 q 542 844 597 814 q 390 875 488 875 q 283 858 332 875 q 206 807 235 842 q 178 718 178 772 q 206 636 178 669 q 276 582 233 603 q 369 547 319 561 q 461 522 418 533 q 576 487 522 507 q 672 438 631 467 q 738 365 714 408 q 761 260 761 322 q 733 133 761 186 q 655 47 704 81 q 544 -2 606 14 q 415 -18 482 -18 z "},"Ś":{"ha":797,"x_min":51,"x_max":761,"o":"m 415 -18 q 274 -3 336 -18 q 167 41 213 11 q 93 116 122 71 q 51 221 64 161 l 167 221 q 206 138 176 171 q 288 88 236 104 q 415 71 340 71 q 538 88 482 71 q 627 146 593 106 q 661 253 661 186 q 631 331 661 299 q 555 385 601 364 q 458 422 508 407 q 367 446 408 436 q 240 486 294 463 q 150 541 186 510 q 96 610 114 572 q 78 693 78 647 q 102 810 78 760 q 169 893 126 860 q 269 942 213 926 q 390 958 326 958 q 514 946 460 958 q 609 908 568 933 q 677 843 650 882 q 717 753 704 804 l 611 753 q 542 844 597 814 q 390 875 488 875 q 283 858 332 875 q 206 807 235 842 q 178 718 178 772 q 206 636 178 669 q 276 582 233 603 q 369 547 319 561 q 461 522 418 533 q 576 487 522 507 q 672 438 631 467 q 738 365 714 408 q 761 260 761 322 q 733 133 761 186 q 655 47 704 81 q 544 -2 606 14 q 415 -18 482 -18 m 349 1022 l 460 1208 l 565 1208 l 426 1022 l 349 1022 z "},"Š":{"ha":797,"x_min":51,"x_max":761,"o":"m 415 -18 q 274 -3 336 -18 q 167 41 213 11 q 93 116 122 71 q 51 221 64 161 l 167 221 q 206 138 176 171 q 288 88 236 104 q 415 71 340 71 q 538 88 482 71 q 627 146 593 106 q 661 253 661 186 q 631 331 661 299 q 555 385 601 364 q 458 422 508 407 q 367 446 408 436 q 240 486 294 463 q 150 541 186 510 q 96 610 114 572 q 78 693 78 647 q 102 810 78 760 q 169 893 126 860 q 269 942 213 926 q 390 958 326 958 q 514 946 460 958 q 609 908 568 933 q 677 843 650 882 q 717 753 704 804 l 611 753 q 542 844 597 814 q 390 875 488 875 q 283 858 332 875 q 206 807 235 842 q 178 718 178 772 q 206 636 178 669 q 276 582 233 603 q 369 547 319 561 q 461 522 418 533 q 576 487 522 507 q 672 438 631 467 q 738 365 714 408 q 761 260 761 322 q 733 133 761 186 q 655 47 704 81 q 544 -2 606 14 q 415 -18 482 -18 m 342 1026 l 189 1211 l 288 1211 l 400 1060 l 375 1060 l 488 1211 l 586 1211 l 433 1026 l 342 1026 z "},"Ş":{"ha":797,"x_min":51,"x_max":761,"o":"m 415 -18 q 274 -3 336 -18 q 167 41 213 11 q 93 116 122 71 q 51 221 64 161 l 167 221 q 206 138 176 171 q 288 88 236 104 q 415 71 340 71 q 538 88 482 71 q 627 146 593 106 q 661 253 661 186 q 631 331 661 299 q 555 385 601 364 q 458 422 508 407 q 367 446 408 436 q 240 486 294 463 q 150 541 186 510 q 96 610 114 572 q 78 693 78 647 q 102 810 78 760 q 169 893 126 860 q 269 942 213 926 q 390 958 326 958 q 514 946 460 958 q 609 908 568 933 q 677 843 650 882 q 717 753 704 804 l 611 753 q 542 844 597 814 q 390 875 488 875 q 283 858 332 875 q 206 807 235 842 q 178 718 178 772 q 206 636 178 669 q 276 582 233 603 q 369 547 319 561 q 461 522 418 533 q 576 487 522 507 q 672 438 631 467 q 738 365 714 408 q 761 260 761 322 q 733 133 761 186 q 655 47 704 81 q 544 -2 606 14 q 415 -18 482 -18 m 236 -340 l 271 -268 q 331 -284 301 -278 q 389 -290 361 -290 q 467 -275 435 -290 q 500 -217 500 -260 q 473 -167 500 -185 q 408 -150 446 -150 q 360 -155 385 -150 q 313 -162 335 -160 l 404 40 l 482 42 l 422 -83 q 458 -82 424 -82 q 540 -117 503 -82 q 578 -218 578 -153 q 549 -306 578 -272 q 478 -354 521 -339 q 389 -369 435 -369 q 313 -362 353 -369 q 236 -340 272 -354 z "},"Ș":{"ha":797,"x_min":51,"x_max":761,"o":"m 415 -18 q 274 -3 336 -18 q 167 41 213 11 q 93 116 122 71 q 51 221 64 161 l 167 221 q 206 138 176 171 q 288 88 236 104 q 415 71 340 71 q 538 88 482 71 q 627 146 593 106 q 661 253 661 186 q 631 331 661 299 q 555 385 601 364 q 458 422 508 407 q 367 446 408 436 q 240 486 294 463 q 150 541 186 510 q 96 610 114 572 q 78 693 78 647 q 102 810 78 760 q 169 893 126 860 q 269 942 213 926 q 390 958 326 958 q 514 946 460 958 q 609 908 568 933 q 677 843 650 882 q 717 753 704 804 l 611 753 q 542 844 597 814 q 390 875 488 875 q 283 858 332 875 q 206 807 235 842 q 178 718 178 772 q 206 636 178 669 q 276 582 233 603 q 369 547 319 561 q 461 522 418 533 q 576 487 522 507 q 672 438 631 467 q 738 365 714 408 q 761 260 761 322 q 733 133 761 186 q 655 47 704 81 q 544 -2 606 14 q 415 -18 482 -18 m 256 -268 l 367 -82 l 472 -82 l 333 -268 l 256 -268 z "},"ẞ":{"ha":790,"x_min":97,"x_max":707,"o":"m 97 0 l 97 944 l 557 944 q 609 925 589 944 q 629 879 629 906 q 624 847 629 865 q 611 811 619 829 q 593 778 603 793 l 468 564 q 600 513 547 551 q 680 416 653 474 q 707 285 707 358 q 671 133 707 197 q 568 35 635 69 q 410 0 501 0 l 244 0 l 244 93 l 410 93 q 515 117 471 93 q 584 188 560 142 q 608 294 608 233 q 584 379 608 342 q 515 442 560 417 q 410 478 471 468 q 367 493 388 481 q 347 532 347 506 q 351 551 347 542 q 356 564 354 561 l 525 853 l 194 853 l 194 0 l 97 0 z "},"T":{"ha":722,"x_min":28,"x_max":694,"o":"m 313 3 l 313 856 l 28 856 l 28 947 l 694 947 l 694 856 l 410 856 l 410 3 l 313 3 z "},"Ť":{"ha":722,"x_min":28,"x_max":694,"o":"m 313 3 l 313 856 l 28 856 l 28 947 l 694 947 l 694 856 l 410 856 l 410 3 l 313 3 m 313 1013 l 160 1197 l 258 1197 l 371 1046 l 346 1046 l 458 1197 l 557 1197 l 404 1013 l 313 1013 z "},"Ț":{"ha":722,"x_min":28,"x_max":694,"o":"m 313 3 l 313 856 l 28 856 l 28 947 l 694 947 l 694 856 l 410 856 l 410 3 l 313 3 m 201 -243 l 313 -57 l 418 -57 l 279 -243 l 201 -243 z "},"U":{"ha":871,"x_min":83,"x_max":788,"o":"m 436 -12 q 251 26 331 -12 q 128 137 172 64 q 83 313 83 210 l 83 944 l 181 944 l 181 299 q 214 178 181 226 q 306 108 247 131 q 436 85 364 85 q 569 109 513 85 q 658 181 626 133 q 690 299 690 229 l 690 944 l 788 944 l 788 313 q 743 137 788 210 q 620 26 699 64 q 436 -12 542 -12 z "},"Ú":{"ha":871,"x_min":83,"x_max":788,"o":"m 436 -12 q 251 26 331 -12 q 128 137 172 64 q 83 313 83 210 l 83 944 l 181 944 l 181 299 q 214 178 181 226 q 306 108 247 131 q 436 85 364 85 q 569 109 513 85 q 658 181 626 133 q 690 299 690 229 l 690 944 l 788 944 l 788 313 q 743 137 788 210 q 620 26 699 64 q 436 -12 542 -12 m 392 989 l 503 1175 l 608 1175 l 469 989 l 392 989 z "},"Ŭ":{"ha":871,"x_min":83,"x_max":788,"o":"m 436 -12 q 251 26 331 -12 q 128 137 172 64 q 83 313 83 210 l 83 944 l 181 944 l 181 299 q 214 178 181 226 q 306 108 247 131 q 436 85 364 85 q 569 109 513 85 q 658 181 626 133 q 690 299 690 229 l 690 944 l 788 944 l 788 313 q 743 137 788 210 q 620 26 699 64 q 436 -12 542 -12 m 626 1172 q 601 1085 626 1126 q 531 1018 575 1044 q 432 992 486 992 q 338 1017 382 992 q 265 1083 293 1042 q 238 1172 238 1125 l 339 1172 q 367 1105 339 1135 q 436 1075 396 1075 q 483 1089 463 1075 q 517 1125 504 1103 q 529 1172 529 1147 l 626 1172 z "},"Û":{"ha":871,"x_min":83,"x_max":788,"o":"m 436 -12 q 251 26 331 -12 q 128 137 172 64 q 83 313 83 210 l 83 944 l 181 944 l 181 299 q 214 178 181 226 q 306 108 247 131 q 436 85 364 85 q 569 109 513 85 q 658 181 626 133 q 690 299 690 229 l 690 944 l 788 944 l 788 313 q 743 137 788 210 q 620 26 699 64 q 436 -12 542 -12 m 236 993 l 389 1178 l 481 1178 l 633 993 l 535 993 l 422 1131 l 447 1131 l 335 993 l 236 993 z "},"Ü":{"ha":871,"x_min":83,"x_max":788,"o":"m 436 -12 q 251 26 331 -12 q 128 137 172 64 q 83 313 83 210 l 83 944 l 181 944 l 181 299 q 214 178 181 226 q 306 108 247 131 q 436 85 364 85 q 569 109 513 85 q 658 181 626 133 q 690 299 690 229 l 690 944 l 788 944 l 788 313 q 743 137 788 210 q 620 26 699 64 q 436 -12 542 -12 m 544 999 q 501 1017 518 999 q 483 1061 483 1035 q 501 1105 483 1088 q 544 1122 518 1122 q 589 1105 571 1122 q 607 1061 607 1088 q 589 1017 607 1035 q 544 999 571 999 m 319 999 q 276 1017 293 999 q 258 1061 258 1035 q 276 1105 258 1088 q 319 1122 293 1122 q 364 1105 346 1122 q 382 1061 382 1088 q 364 1017 382 1035 q 319 999 346 999 z "},"Ù":{"ha":871,"x_min":83,"x_max":788,"o":"m 436 -12 q 251 26 331 -12 q 128 137 172 64 q 83 313 83 210 l 83 944 l 181 944 l 181 299 q 214 178 181 226 q 306 108 247 131 q 436 85 364 85 q 569 109 513 85 q 658 181 626 133 q 690 299 690 229 l 690 944 l 788 944 l 788 313 q 743 137 788 210 q 620 26 699 64 q 436 -12 542 -12 m 386 983 l 233 1182 l 339 1182 l 464 983 l 386 983 z "},"Ű":{"ha":871,"x_min":83,"x_max":788,"o":"m 436 -12 q 251 26 331 -12 q 128 137 172 64 q 83 313 83 210 l 83 944 l 181 944 l 181 299 q 214 178 181 226 q 306 108 247 131 q 436 85 364 85 q 569 109 513 85 q 658 181 626 133 q 690 299 690 229 l 690 944 l 788 944 l 788 313 q 743 137 788 210 q 620 26 699 64 q 436 -12 542 -12 m 296 983 l 379 1182 l 478 1182 l 367 983 l 296 983 m 450 983 l 533 1182 l 632 1182 l 521 983 l 450 983 z "},"Ū":{"ha":871,"x_min":83,"x_max":788,"o":"m 436 -12 q 251 26 331 -12 q 128 137 172 64 q 83 313 83 210 l 83 944 l 181 944 l 181 299 q 214 178 181 226 q 306 108 247 131 q 436 85 364 85 q 569 109 513 85 q 658 181 626 133 q 690 299 690 229 l 690 944 l 788 944 l 788 313 q 743 137 788 210 q 620 26 699 64 q 436 -12 542 -12 m 168 1033 l 168 1113 l 700 1113 l 700 1033 l 168 1033 z "},"Ų":{"ha":871,"x_min":83,"x_max":788,"o":"m 436 -12 q 251 26 331 -12 q 128 137 172 64 q 83 313 83 210 l 83 944 l 181 944 l 181 299 q 214 178 181 226 q 306 108 247 131 q 436 85 364 85 q 569 109 513 85 q 658 181 626 133 q 690 299 690 229 l 690 944 l 788 944 l 788 313 q 743 137 788 210 q 620 26 699 64 q 436 -12 542 -12 m 486 -193 q 440 -182 461 -193 q 405 -152 418 -171 q 392 -112 392 -133 q 409 -48 392 -79 q 453 4 426 -17 l 533 4 q 489 -42 507 -15 q 471 -87 471 -68 q 483 -112 471 -106 q 506 -119 496 -119 q 531 -112 514 -119 q 561 -94 549 -104 l 563 -171 q 528 -187 549 -182 q 486 -193 508 -193 z "},"Ů":{"ha":871,"x_min":83,"x_max":788,"o":"m 436 -12 q 251 26 331 -12 q 128 137 172 64 q 83 313 83 210 l 83 944 l 181 944 l 181 299 q 214 178 181 226 q 306 108 247 131 q 436 85 364 85 q 569 109 513 85 q 658 181 626 133 q 690 299 690 229 l 690 944 l 788 944 l 788 313 q 743 137 788 210 q 620 26 699 64 q 436 -12 542 -12 m 442 967 q 365 986 401 967 q 307 1040 329 1006 q 285 1118 285 1075 q 306 1196 285 1161 q 363 1251 328 1231 q 442 1272 399 1272 q 519 1253 483 1272 q 576 1199 554 1233 q 599 1118 599 1164 q 553 1010 599 1054 q 442 967 507 967 m 443 1047 q 496 1068 475 1047 q 517 1119 517 1089 q 495 1170 517 1150 q 442 1190 474 1190 q 388 1170 410 1190 q 367 1119 367 1150 q 390 1068 367 1089 q 443 1047 413 1047 z "},"V":{"ha":885,"x_min":14,"x_max":871,"o":"m 417 4 l 14 944 l 119 944 l 460 143 l 426 143 l 765 944 l 871 944 l 469 4 l 417 4 z "},"W":{"ha":1129,"x_min":35,"x_max":1094,"o":"m 239 0 l 35 944 l 135 944 l 290 215 l 265 218 l 543 940 l 588 940 l 864 218 l 839 215 l 996 944 l 1094 944 l 892 0 l 844 0 l 550 786 l 581 786 l 286 0 l 239 0 z "},"Ẃ":{"ha":1129,"x_min":35,"x_max":1094,"o":"m 239 0 l 35 944 l 135 944 l 290 215 l 265 218 l 543 940 l 588 940 l 864 218 l 839 215 l 996 944 l 1094 944 l 892 0 l 844 0 l 550 786 l 581 786 l 286 0 l 239 0 m 525 1011 l 636 1197 l 742 1197 l 603 1011 l 525 1011 z "},"Ŵ":{"ha":1129,"x_min":35,"x_max":1094,"o":"m 239 0 l 35 944 l 135 944 l 290 215 l 265 218 l 543 940 l 588 940 l 864 218 l 839 215 l 996 944 l 1094 944 l 892 0 l 844 0 l 550 786 l 581 786 l 286 0 l 239 0 m 369 1015 l 522 1200 l 614 1200 l 767 1015 l 668 1015 l 556 1153 l 581 1153 l 468 1015 l 369 1015 z "},"Ẅ":{"ha":1129,"x_min":35,"x_max":1094,"o":"m 239 0 l 35 944 l 135 944 l 290 215 l 265 218 l 543 940 l 588 940 l 864 218 l 839 215 l 996 944 l 1094 944 l 892 0 l 844 0 l 550 786 l 581 786 l 286 0 l 239 0 m 678 1021 q 634 1039 651 1021 q 617 1083 617 1057 q 634 1127 617 1110 q 678 1144 651 1144 q 722 1127 704 1144 q 740 1083 740 1110 q 722 1039 740 1057 q 678 1021 704 1021 m 453 1021 q 409 1039 426 1021 q 392 1083 392 1057 q 409 1127 392 1110 q 453 1144 426 1144 q 497 1127 479 1144 q 515 1083 515 1110 q 497 1039 515 1057 q 453 1021 479 1021 z "},"Ẁ":{"ha":1129,"x_min":35,"x_max":1094,"o":"m 239 0 l 35 944 l 135 944 l 290 215 l 265 218 l 543 940 l 588 940 l 864 218 l 839 215 l 996 944 l 1094 944 l 892 0 l 844 0 l 550 786 l 581 786 l 286 0 l 239 0 m 519 1006 l 367 1204 l 472 1204 l 597 1006 l 519 1006 z "},"X":{"ha":842,"x_min":28,"x_max":813,"o":"m 29 0 l 361 471 l 28 944 l 149 944 l 421 542 l 693 944 l 813 944 l 481 472 l 813 0 l 693 0 l 421 403 l 149 0 l 29 0 z "},"Y":{"ha":840,"x_min":14,"x_max":826,"o":"m 372 0 l 372 444 l 14 944 l 139 944 l 421 540 l 703 944 l 826 944 l 469 444 l 469 0 l 372 0 z "},"Ý":{"ha":840,"x_min":14,"x_max":826,"o":"m 372 0 l 372 444 l 14 944 l 139 944 l 421 540 l 703 944 l 826 944 l 469 444 l 469 0 l 372 0 m 379 997 l 490 1183 l 596 1183 l 457 997 l 379 997 z "},"Ŷ":{"ha":840,"x_min":14,"x_max":826,"o":"m 372 0 l 372 444 l 14 944 l 139 944 l 421 540 l 703 944 l 826 944 l 469 444 l 469 0 l 372 0 m 224 1001 l 376 1186 l 468 1186 l 621 1001 l 522 1001 l 410 1139 l 435 1139 l 322 1001 l 224 1001 z "},"Ÿ":{"ha":840,"x_min":14,"x_max":826,"o":"m 372 0 l 372 444 l 14 944 l 139 944 l 421 540 l 703 944 l 826 944 l 469 444 l 469 0 l 372 0 m 532 1007 q 488 1025 506 1007 q 471 1069 471 1043 q 488 1113 471 1096 q 532 1131 506 1131 q 576 1113 558 1131 q 594 1069 594 1096 q 576 1025 594 1043 q 532 1007 558 1007 m 307 1007 q 263 1025 281 1007 q 246 1069 246 1043 q 263 1113 246 1096 q 307 1131 281 1131 q 351 1113 333 1131 q 369 1069 369 1096 q 351 1025 369 1043 q 307 1007 333 1007 z "},"Ỳ":{"ha":840,"x_min":14,"x_max":826,"o":"m 372 0 l 372 444 l 14 944 l 139 944 l 421 540 l 703 944 l 826 944 l 469 444 l 469 0 l 372 0 m 374 992 l 221 1190 l 326 1190 l 451 992 l 374 992 z "},"Z":{"ha":806,"x_min":35,"x_max":771,"o":"m 35 0 l 594 854 l 64 854 l 64 944 l 771 944 l 211 90 l 747 90 l 747 0 l 35 0 z "},"Ź":{"ha":806,"x_min":35,"x_max":771,"o":"m 35 0 l 594 854 l 64 854 l 64 944 l 771 944 l 211 90 l 747 90 l 747 0 l 35 0 m 342 1010 l 453 1196 l 558 1196 l 419 1010 l 342 1010 z "},"Ž":{"ha":806,"x_min":35,"x_max":771,"o":"m 35 0 l 594 854 l 64 854 l 64 944 l 771 944 l 211 90 l 747 90 l 747 0 l 35 0 m 335 1014 l 182 1199 l 281 1199 l 393 1047 l 368 1047 l 481 1199 l 579 1199 l 426 1014 l 335 1014 z "},"Ż":{"ha":806,"x_min":35,"x_max":771,"o":"m 35 0 l 594 854 l 64 854 l 64 944 l 771 944 l 211 90 l 747 90 l 747 0 l 35 0 m 386 1031 q 342 1049 360 1031 q 324 1093 324 1067 q 342 1136 324 1118 q 386 1154 360 1154 q 429 1136 411 1154 q 447 1093 447 1118 q 429 1049 447 1067 q 386 1031 411 1031 z "},"a":{"ha":785,"x_min":63,"x_max":688,"o":"m 360 -14 q 206 31 274 -14 q 101 149 139 76 q 63 306 63 222 q 101 463 63 390 q 206 580 139 535 q 360 625 274 625 q 492 592 435 625 q 590 507 550 560 l 590 611 l 688 611 l 688 0 l 590 0 l 590 104 q 529 42 564 69 q 452 1 494 15 q 360 -14 410 -14 m 375 83 q 486 115 438 83 q 563 197 535 146 q 590 306 590 247 q 563 415 590 365 q 486 497 535 465 q 375 528 438 528 q 264 497 313 528 q 188 415 215 465 q 160 306 160 365 q 188 197 160 247 q 264 115 215 146 q 375 83 313 83 z "},"á":{"ha":785,"x_min":63,"x_max":688,"o":"m 360 -14 q 206 31 274 -14 q 101 149 139 76 q 63 306 63 222 q 101 463 63 390 q 206 580 139 535 q 360 625 274 625 q 492 592 435 625 q 590 507 550 560 l 590 611 l 688 611 l 688 0 l 590 0 l 590 104 q 529 42 564 69 q 452 1 494 15 q 360 -14 410 -14 m 375 83 q 486 115 438 83 q 563 197 535 146 q 590 306 590 247 q 563 415 590 365 q 486 497 535 465 q 375 528 438 528 q 264 497 313 528 q 188 415 215 465 q 160 306 160 365 q 188 197 160 247 q 264 115 215 146 q 375 83 313 83 m 342 690 l 453 876 l 558 876 l 419 690 l 342 690 z "},"ă":{"ha":785,"x_min":63,"x_max":688,"o":"m 360 -14 q 206 31 274 -14 q 101 149 139 76 q 63 306 63 222 q 101 463 63 390 q 206 580 139 535 q 360 625 274 625 q 492 592 435 625 q 590 507 550 560 l 590 611 l 688 611 l 688 0 l 590 0 l 590 104 q 529 42 564 69 q 452 1 494 15 q 360 -14 410 -14 m 375 83 q 486 115 438 83 q 563 197 535 146 q 590 306 590 247 q 563 415 590 365 q 486 497 535 465 q 375 528 438 528 q 264 497 313 528 q 188 415 215 465 q 160 306 160 365 q 188 197 160 247 q 264 115 215 146 q 375 83 313 83 m 576 874 q 551 787 576 828 q 481 719 525 746 q 382 693 436 693 q 288 718 332 693 q 215 785 243 743 q 188 874 188 826 l 289 874 q 317 806 289 836 q 386 776 346 776 q 433 790 413 776 q 467 826 454 804 q 479 874 479 849 l 576 874 z "},"â":{"ha":785,"x_min":63,"x_max":688,"o":"m 360 -14 q 206 31 274 -14 q 101 149 139 76 q 63 306 63 222 q 101 463 63 390 q 206 580 139 535 q 360 625 274 625 q 492 592 435 625 q 590 507 550 560 l 590 611 l 688 611 l 688 0 l 590 0 l 590 104 q 529 42 564 69 q 452 1 494 15 q 360 -14 410 -14 m 375 83 q 486 115 438 83 q 563 197 535 146 q 590 306 590 247 q 563 415 590 365 q 486 497 535 465 q 375 528 438 528 q 264 497 313 528 q 188 415 215 465 q 160 306 160 365 q 188 197 160 247 q 264 115 215 146 q 375 83 313 83 m 186 694 l 339 879 l 431 879 l 583 694 l 485 694 l 372 832 l 397 832 l 285 694 l 186 694 z "},"ä":{"ha":785,"x_min":63,"x_max":688,"o":"m 360 -14 q 206 31 274 -14 q 101 149 139 76 q 63 306 63 222 q 101 463 63 390 q 206 580 139 535 q 360 625 274 625 q 492 592 435 625 q 590 507 550 560 l 590 611 l 688 611 l 688 0 l 590 0 l 590 104 q 529 42 564 69 q 452 1 494 15 q 360 -14 410 -14 m 375 83 q 486 115 438 83 q 563 197 535 146 q 590 306 590 247 q 563 415 590 365 q 486 497 535 465 q 375 528 438 528 q 264 497 313 528 q 188 415 215 465 q 160 306 160 365 q 188 197 160 247 q 264 115 215 146 q 375 83 313 83 m 494 700 q 451 718 468 700 q 433 763 433 736 q 451 806 433 789 q 494 824 468 824 q 539 806 521 824 q 557 763 557 789 q 539 718 557 736 q 494 700 521 700 m 269 700 q 226 718 243 700 q 208 763 208 736 q 226 806 208 789 q 269 824 243 824 q 314 806 296 824 q 332 763 332 789 q 314 718 332 736 q 269 700 296 700 z "},"à":{"ha":785,"x_min":63,"x_max":688,"o":"m 360 -14 q 206 31 274 -14 q 101 149 139 76 q 63 306 63 222 q 101 463 63 390 q 206 580 139 535 q 360 625 274 625 q 492 592 435 625 q 590 507 550 560 l 590 611 l 688 611 l 688 0 l 590 0 l 590 104 q 529 42 564 69 q 452 1 494 15 q 360 -14 410 -14 m 375 83 q 486 115 438 83 q 563 197 535 146 q 590 306 590 247 q 563 415 590 365 q 486 497 535 465 q 375 528 438 528 q 264 497 313 528 q 188 415 215 465 q 160 306 160 365 q 188 197 160 247 q 264 115 215 146 q 375 83 313 83 m 336 685 l 183 883 l 289 883 l 414 685 l 336 685 z "},"ā":{"ha":785,"x_min":63,"x_max":688,"o":"m 360 -14 q 206 31 274 -14 q 101 149 139 76 q 63 306 63 222 q 101 463 63 390 q 206 580 139 535 q 360 625 274 625 q 492 592 435 625 q 590 507 550 560 l 590 611 l 688 611 l 688 0 l 590 0 l 590 104 q 529 42 564 69 q 452 1 494 15 q 360 -14 410 -14 m 375 83 q 486 115 438 83 q 563 197 535 146 q 590 306 590 247 q 563 415 590 365 q 486 497 535 465 q 375 528 438 528 q 264 497 313 528 q 188 415 215 465 q 160 306 160 365 q 188 197 160 247 q 264 115 215 146 q 375 83 313 83 m 118 735 l 118 814 l 650 814 l 650 735 l 118 735 z "},"ą":{"ha":785,"x_min":63,"x_max":707,"o":"m 360 -14 q 206 31 274 -14 q 101 149 139 76 q 63 306 63 222 q 101 463 63 390 q 206 580 139 535 q 360 625 274 625 q 492 592 435 625 q 590 507 550 560 l 590 611 l 688 611 l 688 0 l 590 0 l 590 104 q 529 42 564 69 q 452 1 494 15 q 360 -14 410 -14 m 375 83 q 486 115 438 83 q 563 197 535 146 q 590 306 590 247 q 563 415 590 365 q 486 497 535 465 q 375 528 438 528 q 264 497 313 528 q 188 415 215 465 q 160 306 160 365 q 188 197 160 247 q 264 115 215 146 q 375 83 313 83 m 631 -194 q 584 -183 606 -194 q 549 -153 563 -172 q 536 -114 536 -135 q 553 -49 536 -81 q 597 3 571 -18 l 678 3 q 633 -43 651 -17 q 615 -89 615 -69 q 628 -114 615 -107 q 650 -121 640 -121 q 676 -113 658 -121 q 706 -96 693 -106 l 707 -172 q 673 -189 693 -183 q 631 -194 653 -194 z "},"å":{"ha":785,"x_min":63,"x_max":688,"o":"m 360 -14 q 206 31 274 -14 q 101 149 139 76 q 63 306 63 222 q 101 463 63 390 q 206 580 139 535 q 360 625 274 625 q 492 592 435 625 q 590 507 550 560 l 590 611 l 688 611 l 688 0 l 590 0 l 590 104 q 529 42 564 69 q 452 1 494 15 q 360 -14 410 -14 m 375 83 q 486 115 438 83 q 563 197 535 146 q 590 306 590 247 q 563 415 590 365 q 486 497 535 465 q 375 528 438 528 q 264 497 313 528 q 188 415 215 465 q 160 306 160 365 q 188 197 160 247 q 264 115 215 146 q 375 83 313 83 m 392 668 q 315 688 351 668 q 257 742 279 707 q 235 819 235 776 q 256 897 235 863 q 313 953 278 932 q 392 974 349 974 q 469 954 433 974 q 526 900 504 935 q 549 819 549 865 q 503 712 549 756 q 392 668 457 668 m 393 749 q 446 769 425 749 q 467 821 467 790 q 445 872 467 851 q 392 892 424 892 q 338 872 360 892 q 317 821 317 851 q 340 769 317 790 q 393 749 363 749 z "},"ã":{"ha":785,"x_min":63,"x_max":688,"o":"m 360 -14 q 206 31 274 -14 q 101 149 139 76 q 63 306 63 222 q 101 463 63 390 q 206 580 139 535 q 360 625 274 625 q 492 592 435 625 q 590 507 550 560 l 590 611 l 688 611 l 688 0 l 590 0 l 590 104 q 529 42 564 69 q 452 1 494 15 q 360 -14 410 -14 m 375 83 q 486 115 438 83 q 563 197 535 146 q 590 306 590 247 q 563 415 590 365 q 486 497 535 465 q 375 528 438 528 q 264 497 313 528 q 188 415 215 465 q 160 306 160 365 q 188 197 160 247 q 264 115 215 146 q 375 83 313 83 m 478 681 q 415 697 444 681 q 359 737 385 714 q 311 776 333 760 q 272 793 289 793 q 238 777 250 793 q 221 739 225 761 q 218 697 217 717 l 150 697 q 163 786 149 747 q 208 847 178 825 q 282 869 238 869 q 348 853 318 869 q 403 814 378 836 q 449 775 429 792 q 481 758 468 758 q 517 769 506 758 q 533 802 529 781 q 538 854 538 824 l 606 854 q 599 770 611 810 q 558 706 588 731 q 478 681 528 681 z "},"æ":{"ha":1288,"x_min":63,"x_max":1232,"o":"m 360 -14 q 206 31 274 -14 q 101 149 139 76 q 63 306 63 222 q 101 463 63 390 q 206 580 139 535 q 360 625 274 625 q 492 592 435 625 q 590 507 550 560 l 590 611 l 688 611 l 688 0 l 590 0 l 590 104 q 529 42 564 69 q 452 1 494 15 q 360 -14 410 -14 m 375 83 q 486 115 438 83 q 563 197 535 146 q 590 306 590 247 q 563 415 590 365 q 486 497 535 465 q 375 528 438 528 q 264 497 313 528 q 188 415 215 465 q 160 306 160 365 q 188 197 160 247 q 264 115 215 146 q 375 83 313 83 m 928 -10 q 760 30 836 -10 q 639 141 685 69 q 593 308 593 213 q 636 469 593 397 q 751 585 679 542 q 913 628 824 628 q 1071 585 999 628 q 1188 471 1143 542 q 1232 314 1232 400 l 1232 275 l 654 275 l 654 365 l 1129 365 q 1052 483 1113 435 q 913 531 992 531 q 798 500 847 531 q 721 417 749 469 q 693 300 693 365 q 725 188 693 236 q 807 114 757 140 q 913 88 857 88 q 992 97 956 88 q 1060 126 1029 107 q 1117 176 1092 146 l 1190 115 q 1116 48 1160 76 q 1024 5 1072 19 q 928 -10 975 -10 z "},"b":{"ha":778,"x_min":97,"x_max":722,"o":"m 425 -14 q 333 1 375 -14 q 256 42 290 15 q 194 104 222 69 l 194 0 l 97 0 l 97 1042 l 194 1042 l 194 507 q 292 592 235 560 q 425 625 350 625 q 578 580 511 625 q 684 463 646 535 q 722 306 722 390 q 684 149 722 222 q 578 31 646 76 q 425 -14 511 -14 m 410 83 q 521 115 472 83 q 597 197 569 146 q 625 306 625 247 q 597 415 625 365 q 521 497 569 465 q 410 528 472 528 q 299 497 347 528 q 222 415 250 465 q 194 306 194 365 q 222 197 194 247 q 299 115 250 146 q 410 83 347 83 z "},"c":{"ha":724,"x_min":56,"x_max":668,"o":"m 360 -14 q 250 10 304 -14 q 152 76 196 33 q 82 176 108 118 q 56 306 56 235 q 97 465 56 393 q 210 581 139 538 q 368 624 281 624 q 497 596 436 624 q 603 516 557 568 q 668 392 649 464 l 563 392 q 485 487 538 451 q 378 522 432 522 q 267 495 318 522 q 186 419 217 468 q 156 306 156 371 q 183 197 156 247 q 260 117 211 147 q 368 88 308 88 q 476 118 426 88 q 553 200 525 149 l 663 200 q 593 84 639 132 q 488 11 547 36 q 360 -14 428 -14 z "},"ć":{"ha":724,"x_min":56,"x_max":668,"o":"m 360 -14 q 250 10 304 -14 q 152 76 196 33 q 82 176 108 118 q 56 306 56 235 q 97 465 56 393 q 210 581 139 538 q 368 624 281 624 q 497 596 436 624 q 603 516 557 568 q 668 392 649 464 l 563 392 q 485 487 538 451 q 378 522 432 522 q 267 495 318 522 q 186 419 217 468 q 156 306 156 371 q 183 197 156 247 q 260 117 211 147 q 368 88 308 88 q 476 118 426 88 q 553 200 525 149 l 663 200 q 593 84 639 132 q 488 11 547 36 q 360 -14 428 -14 m 326 689 l 438 875 l 543 875 l 404 689 l 326 689 z "},"č":{"ha":724,"x_min":56,"x_max":668,"o":"m 360 -14 q 250 10 304 -14 q 152 76 196 33 q 82 176 108 118 q 56 306 56 235 q 97 465 56 393 q 210 581 139 538 q 368 624 281 624 q 497 596 436 624 q 603 516 557 568 q 668 392 649 464 l 563 392 q 485 487 538 451 q 378 522 432 522 q 267 495 318 522 q 186 419 217 468 q 156 306 156 371 q 183 197 156 247 q 260 117 211 147 q 368 88 308 88 q 476 118 426 88 q 553 200 525 149 l 663 200 q 593 84 639 132 q 488 11 547 36 q 360 -14 428 -14 m 319 693 l 167 878 l 265 878 l 378 726 l 353 726 l 465 878 l 564 878 l 411 693 l 319 693 z "},"ç":{"ha":724,"x_min":56,"x_max":668,"o":"m 360 -14 q 250 10 304 -14 q 152 76 196 33 q 82 176 108 118 q 56 306 56 235 q 97 465 56 393 q 210 581 139 538 q 368 624 281 624 q 497 596 436 624 q 603 516 557 568 q 668 392 649 464 l 563 392 q 485 487 538 451 q 378 522 432 522 q 267 495 318 522 q 186 419 217 468 q 156 306 156 371 q 183 197 156 247 q 260 117 211 147 q 368 88 308 88 q 476 118 426 88 q 553 200 525 149 l 663 200 q 593 84 639 132 q 488 11 547 36 q 360 -14 428 -14 m 181 -336 l 215 -264 q 276 -280 246 -274 q 333 -286 306 -286 q 412 -271 379 -286 q 444 -212 444 -256 q 417 -163 444 -181 q 353 -146 390 -146 q 304 -151 329 -146 q 257 -158 279 -156 l 349 44 l 426 46 l 367 -79 q 403 -78 368 -78 q 485 -113 447 -78 q 522 -214 522 -149 q 494 -301 522 -268 q 422 -350 465 -335 q 333 -365 379 -365 q 257 -358 297 -365 q 181 -336 217 -350 z "},"ċ":{"ha":724,"x_min":56,"x_max":668,"o":"m 360 -14 q 250 10 304 -14 q 152 76 196 33 q 82 176 108 118 q 56 306 56 235 q 97 465 56 393 q 210 581 139 538 q 368 624 281 624 q 497 596 436 624 q 603 516 557 568 q 668 392 649 464 l 563 392 q 485 487 538 451 q 378 522 432 522 q 267 495 318 522 q 186 419 217 468 q 156 306 156 371 q 183 197 156 247 q 260 117 211 147 q 368 88 308 88 q 476 118 426 88 q 553 200 525 149 l 663 200 q 593 84 639 132 q 488 11 547 36 q 360 -14 428 -14 m 371 710 q 326 728 344 710 q 308 772 308 746 q 326 815 308 797 q 371 833 344 833 q 414 815 396 833 q 432 772 432 797 q 414 728 432 746 q 371 710 396 710 z "},"d":{"ha":778,"x_min":56,"x_max":681,"o":"m 353 -14 q 199 31 267 -14 q 94 149 132 76 q 56 306 56 222 q 94 463 56 390 q 199 580 132 535 q 353 625 267 625 q 488 594 428 625 q 583 507 547 564 l 583 1042 l 681 1042 l 681 0 l 583 0 l 583 104 q 522 42 557 69 q 445 1 488 15 q 353 -14 403 -14 m 368 83 q 479 115 431 83 q 556 197 528 146 q 583 306 583 247 q 556 415 583 365 q 479 497 528 465 q 368 528 431 528 q 257 497 306 528 q 181 415 208 465 q 153 306 153 365 q 181 197 153 247 q 257 115 208 146 q 368 83 306 83 z "},"ď":{"ha":778,"x_min":56,"x_max":878,"o":"m 353 -14 q 199 31 267 -14 q 94 149 132 76 q 56 306 56 222 q 94 463 56 390 q 199 580 132 535 q 353 625 267 625 q 488 594 428 625 q 583 507 547 564 l 583 1042 l 681 1042 l 681 0 l 583 0 l 583 104 q 522 42 557 69 q 445 1 488 15 q 353 -14 403 -14 m 368 83 q 479 115 431 83 q 556 197 528 146 q 583 306 583 247 q 556 415 583 365 q 479 497 528 465 q 368 528 431 528 q 257 497 306 528 q 181 415 208 465 q 153 306 153 365 q 181 197 153 247 q 257 115 208 146 q 368 83 306 83 m 750 778 l 782 1042 l 878 1042 l 818 778 l 750 778 z "},"đ":{"ha":778,"x_min":56,"x_max":681,"o":"m 353 -14 q 199 31 267 -14 q 94 149 132 76 q 56 306 56 222 q 94 463 56 390 q 199 580 132 535 q 353 625 267 625 q 488 594 428 625 q 583 507 547 564 l 583 1042 l 681 1042 l 681 0 l 583 0 l 583 104 q 522 42 557 69 q 445 1 488 15 q 353 -14 403 -14 m 368 83 q 479 115 431 83 q 556 197 528 146 q 583 306 583 247 q 556 415 583 365 q 479 497 528 465 q 368 528 431 528 q 257 497 306 528 q 181 415 208 465 q 153 306 153 365 q 181 197 153 247 q 257 115 208 146 q 368 83 306 83 z "},"ð":{"ha":792,"x_min":56,"x_max":697,"o":"m 375 -10 q 215 28 288 -10 q 99 134 142 67 q 56 288 56 201 q 99 441 56 374 q 214 547 142 508 q 375 586 286 586 q 536 547 464 586 q 651 441 608 508 q 694 288 694 374 q 651 134 694 201 q 535 28 608 67 q 375 -10 463 -10 m 375 88 q 487 113 436 88 q 567 185 538 139 q 597 288 597 231 q 567 392 597 346 q 488 463 538 438 q 375 489 438 489 q 263 463 314 489 q 183 392 213 438 q 153 288 153 346 q 183 185 153 231 q 263 113 213 139 q 375 88 314 88 m 356 667 l 300 722 l 600 1022 l 656 967 l 356 667 m 200 925 l 200 1022 q 474 931 363 1011 q 641 692 585 850 q 694 288 697 533 l 597 288 q 574 534 594 421 q 508 731 553 647 q 388 866 463 815 q 200 925 313 917 z "},"e":{"ha":750,"x_min":56,"x_max":694,"o":"m 390 -10 q 223 30 299 -10 q 101 141 147 69 q 56 308 56 213 q 99 469 56 397 q 214 585 142 542 q 375 628 286 628 q 533 585 461 628 q 650 471 606 542 q 694 314 694 400 l 694 275 l 117 275 l 117 365 l 592 365 q 515 483 575 435 q 375 531 454 531 q 260 500 310 531 q 183 417 211 469 q 156 300 156 365 q 188 188 156 236 q 269 114 219 140 q 375 88 319 88 q 455 97 418 88 q 523 126 492 107 q 579 176 554 146 l 653 115 q 578 48 622 76 q 486 5 535 19 q 390 -10 438 -10 z "},"é":{"ha":750,"x_min":56,"x_max":694,"o":"m 390 -10 q 223 30 299 -10 q 101 141 147 69 q 56 308 56 213 q 99 469 56 397 q 214 585 142 542 q 375 628 286 628 q 533 585 461 628 q 650 471 606 542 q 694 314 694 400 l 694 275 l 117 275 l 117 365 l 592 365 q 515 483 575 435 q 375 531 454 531 q 260 500 310 531 q 183 417 211 469 q 156 300 156 365 q 188 188 156 236 q 269 114 219 140 q 375 88 319 88 q 455 97 418 88 q 523 126 492 107 q 579 176 554 146 l 653 115 q 578 48 622 76 q 486 5 535 19 q 390 -10 438 -10 m 335 694 l 446 881 l 551 881 l 413 694 l 335 694 z "},"ě":{"ha":750,"x_min":56,"x_max":694,"o":"m 390 -10 q 223 30 299 -10 q 101 141 147 69 q 56 308 56 213 q 99 469 56 397 q 214 585 142 542 q 375 628 286 628 q 533 585 461 628 q 650 471 606 542 q 694 314 694 400 l 694 275 l 117 275 l 117 365 l 592 365 q 515 483 575 435 q 375 531 454 531 q 260 500 310 531 q 183 417 211 469 q 156 300 156 365 q 188 188 156 236 q 269 114 219 140 q 375 88 319 88 q 455 97 418 88 q 523 126 492 107 q 579 176 554 146 l 653 115 q 578 48 622 76 q 486 5 535 19 q 390 -10 438 -10 m 328 699 l 175 883 l 274 883 l 386 732 l 361 732 l 474 883 l 572 883 l 419 699 l 328 699 z "},"ê":{"ha":750,"x_min":56,"x_max":694,"o":"m 390 -10 q 223 30 299 -10 q 101 141 147 69 q 56 308 56 213 q 99 469 56 397 q 214 585 142 542 q 375 628 286 628 q 533 585 461 628 q 650 471 606 542 q 694 314 694 400 l 694 275 l 117 275 l 117 365 l 592 365 q 515 483 575 435 q 375 531 454 531 q 260 500 310 531 q 183 417 211 469 q 156 300 156 365 q 188 188 156 236 q 269 114 219 140 q 375 88 319 88 q 455 97 418 88 q 523 126 492 107 q 579 176 554 146 l 653 115 q 578 48 622 76 q 486 5 535 19 q 390 -10 438 -10 m 179 699 l 332 883 l 424 883 l 576 699 l 478 699 l 365 836 l 390 836 l 278 699 l 179 699 z "},"ë":{"ha":750,"x_min":56,"x_max":694,"o":"m 390 -10 q 223 30 299 -10 q 101 141 147 69 q 56 308 56 213 q 99 469 56 397 q 214 585 142 542 q 375 628 286 628 q 533 585 461 628 q 650 471 606 542 q 694 314 694 400 l 694 275 l 117 275 l 117 365 l 592 365 q 515 483 575 435 q 375 531 454 531 q 260 500 310 531 q 183 417 211 469 q 156 300 156 365 q 188 188 156 236 q 269 114 219 140 q 375 88 319 88 q 455 97 418 88 q 523 126 492 107 q 579 176 554 146 l 653 115 q 578 48 622 76 q 486 5 535 19 q 390 -10 438 -10 m 488 704 q 444 722 461 704 q 426 767 426 740 q 444 810 426 793 q 488 828 461 828 q 532 810 514 828 q 550 767 550 793 q 532 722 550 740 q 488 704 514 704 m 263 704 q 219 722 236 704 q 201 767 201 740 q 219 810 201 793 q 263 828 236 828 q 307 810 289 828 q 325 767 325 793 q 307 722 325 740 q 263 704 289 704 z "},"ė":{"ha":750,"x_min":56,"x_max":694,"o":"m 390 -10 q 223 30 299 -10 q 101 141 147 69 q 56 308 56 213 q 99 469 56 397 q 214 585 142 542 q 375 628 286 628 q 533 585 461 628 q 650 471 606 542 q 694 314 694 400 l 694 275 l 117 275 l 117 365 l 592 365 q 515 483 575 435 q 375 531 454 531 q 260 500 310 531 q 183 417 211 469 q 156 300 156 365 q 188 188 156 236 q 269 114 219 140 q 375 88 319 88 q 455 97 418 88 q 523 126 492 107 q 579 176 554 146 l 653 115 q 578 48 622 76 q 486 5 535 19 q 390 -10 438 -10 m 379 715 q 335 733 353 715 q 317 778 317 751 q 335 821 317 803 q 379 839 353 839 q 422 821 404 839 q 440 778 440 803 q 422 733 440 751 q 379 715 404 715 z "},"è":{"ha":750,"x_min":56,"x_max":694,"o":"m 390 -10 q 223 30 299 -10 q 101 141 147 69 q 56 308 56 213 q 99 469 56 397 q 214 585 142 542 q 375 628 286 628 q 533 585 461 628 q 650 471 606 542 q 694 314 694 400 l 694 275 l 117 275 l 117 365 l 592 365 q 515 483 575 435 q 375 531 454 531 q 260 500 310 531 q 183 417 211 469 q 156 300 156 365 q 188 188 156 236 q 269 114 219 140 q 375 88 319 88 q 455 97 418 88 q 523 126 492 107 q 579 176 554 146 l 653 115 q 578 48 622 76 q 486 5 535 19 q 390 -10 438 -10 m 329 689 l 176 888 l 282 888 l 407 689 l 329 689 z "},"ē":{"ha":750,"x_min":56,"x_max":694,"o":"m 390 -10 q 223 30 299 -10 q 101 141 147 69 q 56 308 56 213 q 99 469 56 397 q 214 585 142 542 q 375 628 286 628 q 533 585 461 628 q 650 471 606 542 q 694 314 694 400 l 694 275 l 117 275 l 117 365 l 592 365 q 515 483 575 435 q 375 531 454 531 q 260 500 310 531 q 183 417 211 469 q 156 300 156 365 q 188 188 156 236 q 269 114 219 140 q 375 88 319 88 q 455 97 418 88 q 523 126 492 107 q 579 176 554 146 l 653 115 q 578 48 622 76 q 486 5 535 19 q 390 -10 438 -10 m 111 739 l 111 818 l 643 818 l 643 739 l 111 739 z "},"ę":{"ha":750,"x_min":56,"x_max":694,"o":"m 390 -10 q 223 30 299 -10 q 101 141 147 69 q 56 308 56 213 q 99 469 56 397 q 214 585 142 542 q 375 628 286 628 q 533 585 461 628 q 650 471 606 542 q 694 314 694 400 l 694 275 l 117 275 l 117 365 l 592 365 q 515 483 575 435 q 375 531 454 531 q 260 500 310 531 q 183 417 211 469 q 156 300 156 365 q 188 188 156 236 q 269 114 219 140 q 375 88 319 88 q 455 97 418 88 q 523 126 492 107 q 579 176 554 146 l 653 115 q 578 48 622 76 q 486 5 535 19 q 390 -10 438 -10 m 564 -126 q 517 -115 539 -126 q 483 -85 496 -104 q 469 -46 469 -67 q 487 19 469 -12 q 531 71 504 50 l 611 71 q 567 25 585 51 q 549 -21 549 -1 q 561 -46 549 -39 q 583 -53 574 -53 q 609 -45 592 -53 q 639 -28 626 -37 l 640 -104 q 606 -121 626 -115 q 564 -126 586 -126 z "},"f":{"ha":453,"x_min":28,"x_max":411,"o":"m 165 0 l 165 521 l 28 521 l 28 611 l 165 611 l 165 857 q 185 963 165 922 q 248 1022 206 1003 q 356 1042 290 1042 l 397 1042 l 397 951 l 342 951 q 282 933 301 951 q 263 875 263 915 l 263 611 l 411 611 l 411 521 l 263 521 l 263 0 l 165 0 z "},"g":{"ha":785,"x_min":63,"x_max":688,"o":"m 375 -347 q 267 -326 317 -347 q 180 -269 218 -306 q 118 -187 142 -233 q 86 -90 94 -142 l 183 -90 q 256 -206 200 -162 q 375 -250 311 -250 q 485 -220 436 -250 q 562 -140 533 -190 q 590 -31 590 -90 l 590 103 q 538 48 571 75 q 462 3 506 21 q 361 -14 418 -14 q 207 31 275 -14 q 101 148 139 75 q 63 306 63 221 q 101 463 63 390 q 207 581 139 536 q 361 625 275 625 q 463 606 418 625 q 540 560 508 588 q 590 508 572 533 l 590 611 l 688 611 l 688 -31 q 646 -190 688 -118 q 533 -304 604 -261 q 375 -347 463 -347 m 375 83 q 486 115 438 83 q 563 197 535 146 q 590 306 590 247 q 563 415 590 365 q 486 497 535 465 q 375 528 438 528 q 266 497 315 528 q 188 417 217 467 q 160 306 160 367 q 188 195 160 246 q 266 114 217 144 q 375 83 315 83 z "},"ğ":{"ha":785,"x_min":63,"x_max":688,"o":"m 375 -347 q 267 -326 317 -347 q 180 -269 218 -306 q 118 -187 142 -233 q 86 -90 94 -142 l 183 -90 q 256 -206 200 -162 q 375 -250 311 -250 q 485 -220 436 -250 q 562 -140 533 -190 q 590 -31 590 -90 l 590 103 q 538 48 571 75 q 462 3 506 21 q 361 -14 418 -14 q 207 31 275 -14 q 101 148 139 75 q 63 306 63 221 q 101 463 63 390 q 207 581 139 536 q 361 625 275 625 q 463 606 418 625 q 540 560 508 588 q 590 508 572 533 l 590 611 l 688 611 l 688 -31 q 646 -190 688 -118 q 533 -304 604 -261 q 375 -347 463 -347 m 375 83 q 486 115 438 83 q 563 197 535 146 q 590 306 590 247 q 563 415 590 365 q 486 497 535 465 q 375 528 438 528 q 266 497 315 528 q 188 417 217 467 q 160 306 160 367 q 188 195 160 246 q 266 114 217 144 q 375 83 315 83 m 569 876 q 544 790 569 831 q 474 722 518 749 q 375 696 429 696 q 281 721 325 696 q 208 788 236 746 q 181 876 181 829 l 282 876 q 310 809 282 839 q 379 779 339 779 q 426 793 406 779 q 460 829 447 807 q 472 876 472 851 l 569 876 z "},"ģ":{"ha":785,"x_min":63,"x_max":688,"o":"m 375 -347 q 267 -326 317 -347 q 180 -269 218 -306 q 118 -187 142 -233 q 86 -90 94 -142 l 183 -90 q 256 -206 200 -162 q 375 -250 311 -250 q 485 -220 436 -250 q 562 -140 533 -190 q 590 -31 590 -90 l 590 103 q 538 48 571 75 q 462 3 506 21 q 361 -14 418 -14 q 207 31 275 -14 q 101 148 139 75 q 63 306 63 221 q 101 463 63 390 q 207 581 139 536 q 361 625 275 625 q 463 606 418 625 q 540 560 508 588 q 590 508 572 533 l 590 611 l 688 611 l 688 -31 q 646 -190 688 -118 q 533 -304 604 -261 q 375 -347 463 -347 m 375 83 q 486 115 438 83 q 563 197 535 146 q 590 306 590 247 q 563 415 590 365 q 486 497 535 465 q 375 528 438 528 q 266 497 315 528 q 188 417 217 467 q 160 306 160 367 q 188 195 160 246 q 266 114 217 144 q 375 83 315 83 m 418 1003 l 458 950 q 411 906 438 935 q 378 849 385 878 l 381 849 q 437 827 413 849 q 461 771 461 806 q 450 731 461 749 q 421 702 439 713 q 381 692 403 692 q 315 722 338 692 q 293 803 293 751 q 310 878 293 842 q 357 947 328 915 q 418 1003 386 979 z "},"ġ":{"ha":785,"x_min":63,"x_max":688,"o":"m 375 -347 q 267 -326 317 -347 q 180 -269 218 -306 q 118 -187 142 -233 q 86 -90 94 -142 l 183 -90 q 256 -206 200 -162 q 375 -250 311 -250 q 485 -220 436 -250 q 562 -140 533 -190 q 590 -31 590 -90 l 590 103 q 538 48 571 75 q 462 3 506 21 q 361 -14 418 -14 q 207 31 275 -14 q 101 148 139 75 q 63 306 63 221 q 101 463 63 390 q 207 581 139 536 q 361 625 275 625 q 463 606 418 625 q 540 560 508 588 q 590 508 572 533 l 590 611 l 688 611 l 688 -31 q 646 -190 688 -118 q 533 -304 604 -261 q 375 -347 463 -347 m 375 83 q 486 115 438 83 q 563 197 535 146 q 590 306 590 247 q 563 415 590 365 q 486 497 535 465 q 375 528 438 528 q 266 497 315 528 q 188 417 217 467 q 160 306 160 367 q 188 195 160 246 q 266 114 217 144 q 375 83 315 83 m 379 714 q 335 732 353 714 q 317 776 317 750 q 335 819 317 801 q 379 838 353 838 q 422 819 404 838 q 440 776 440 801 q 422 732 440 750 q 379 714 404 714 z "},"h":{"ha":700,"x_min":97,"x_max":617,"o":"m 97 0 l 97 1042 l 194 1042 l 194 506 q 272 590 224 556 q 388 624 319 624 q 515 594 464 624 q 591 510 565 564 q 617 382 617 456 l 617 0 l 519 0 l 519 382 q 509 451 519 418 q 473 506 499 485 q 403 526 447 526 q 282 494 328 526 q 215 402 236 463 q 194 256 194 342 l 194 0 l 97 0 z "},"ħ":{"ha":700,"x_min":-74,"x_max":617,"o":"m 97 0 l 97 1042 l 194 1042 l 194 506 q 272 590 224 556 q 388 624 319 624 q 515 594 464 624 q 591 510 565 564 q 617 382 617 456 l 617 0 l 519 0 l 519 382 q 509 451 519 418 q 473 506 499 485 q 403 526 447 526 q 282 494 328 526 q 215 402 236 463 q 194 256 194 342 l 194 0 l 97 0 m -74 790 l -74 871 l 392 871 l 392 790 l -74 790 z "},"i":{"ha":318,"x_min":97,"x_max":221,"o":"m 111 0 l 111 611 l 208 611 l 208 0 l 111 0 m 160 717 q 115 735 133 717 q 97 779 97 753 q 115 822 97 804 q 160 840 133 840 q 203 822 185 840 q 221 779 221 804 q 203 735 221 753 q 160 717 185 717 z "},"ı":{"ha":318,"x_min":111,"x_max":208,"o":"m 111 0 l 111 611 l 208 611 l 208 0 l 111 0 z "},"í":{"ha":318,"x_min":111,"x_max":333,"o":"m 111 0 l 111 611 l 208 611 l 208 0 l 111 0 m 117 679 l 228 865 l 333 865 l 194 679 l 117 679 z "},"î":{"ha":318,"x_min":-39,"x_max":358,"o":"m 111 0 l 111 611 l 208 611 l 208 0 l 111 0 m -39 683 l 114 868 l 206 868 l 358 683 l 260 683 l 147 821 l 172 821 l 60 683 l -39 683 z "},"ï":{"ha":318,"x_min":-17,"x_max":332,"o":"m 111 0 l 111 611 l 208 611 l 208 0 l 111 0 m 269 689 q 226 707 243 689 q 208 751 208 725 q 226 795 208 778 q 269 813 243 813 q 314 795 296 813 q 332 751 332 778 q 314 707 332 725 q 269 689 296 689 m 44 689 q 1 707 18 689 q -17 751 -17 725 q 1 795 -17 778 q 44 813 18 813 q 89 795 71 813 q 107 751 107 778 q 89 707 107 725 q 44 689 71 689 z "},"ì":{"ha":318,"x_min":-42,"x_max":208,"o":"m 111 0 l 111 611 l 208 611 l 208 0 l 111 0 m 111 674 l -42 872 l 64 872 l 189 674 l 111 674 z "},"ī":{"ha":476,"x_min":-28,"x_max":504,"o":"m 190 0 l 190 611 l 288 611 l 288 0 l 190 0 m -28 724 l -28 803 l 504 803 l 504 724 l -28 724 z "},"į":{"ha":318,"x_min":50,"x_max":221,"o":"m 111 0 l 111 611 l 208 611 l 208 0 l 111 0 m 160 717 q 115 735 133 717 q 97 779 97 753 q 115 822 97 804 q 160 840 133 840 q 203 822 185 840 q 221 779 221 804 q 203 735 221 753 q 160 717 185 717 m 144 -190 q 98 -179 119 -190 q 63 -149 76 -168 q 50 -110 50 -131 q 67 -45 50 -76 q 111 7 85 -14 l 192 7 q 147 -39 165 -12 q 129 -85 129 -65 q 142 -110 129 -103 q 164 -117 154 -117 q 190 -109 172 -117 q 219 -92 207 -101 l 221 -168 q 187 -185 207 -179 q 144 -190 167 -190 z "},"j":{"ha":326,"x_min":-160,"x_max":231,"o":"m 169 717 q 125 735 143 717 q 107 779 107 753 q 125 822 107 804 q 169 840 143 840 q 213 822 194 840 q 231 779 231 804 q 213 735 231 753 q 169 717 194 717 m 21 -337 q -73 -319 -25 -337 q -160 -257 -121 -301 l -96 -187 q -51 -226 -79 -210 q 4 -243 -22 -243 q 88 -208 57 -243 q 118 -118 118 -174 l 118 611 l 215 611 l 215 -117 q 190 -226 215 -175 q 122 -307 165 -276 q 21 -337 78 -337 z "},"ȷ":{"ha":326,"x_min":-160,"x_max":215,"o":"m 21 -337 q -73 -319 -25 -337 q -160 -257 -121 -301 l -96 -187 q -51 -226 -79 -210 q 4 -243 -22 -243 q 88 -208 57 -243 q 118 -118 118 -174 l 118 611 l 215 611 l 215 -117 q 190 -226 215 -175 q 122 -307 165 -276 q 21 -337 78 -337 z "},"k":{"ha":578,"x_min":97,"x_max":564,"o":"m 97 0 l 97 1042 l 194 1042 l 194 338 l 418 613 l 547 613 l 296 315 l 564 0 l 435 0 l 194 293 l 194 0 l 97 0 z "},"ķ":{"ha":578,"x_min":97,"x_max":564,"o":"m 97 0 l 97 1042 l 194 1042 l 194 338 l 418 613 l 547 613 l 296 315 l 564 0 l 435 0 l 194 293 l 194 0 l 97 0 m 133 -243 l 244 -57 l 350 -57 l 211 -243 l 133 -243 z "},"l":{"ha":306,"x_min":104,"x_max":201,"o":"m 104 0 l 104 1042 l 201 1042 l 201 0 l 104 0 z "},"ĺ":{"ha":306,"x_min":104,"x_max":326,"o":"m 104 0 l 104 1042 l 201 1042 l 201 0 l 104 0 m 110 1106 l 221 1292 l 326 1292 l 188 1106 l 110 1106 z "},"ľ":{"ha":414,"x_min":104,"x_max":414,"o":"m 104 0 l 104 1042 l 201 1042 l 201 0 l 104 0 m 286 778 l 318 1042 l 414 1042 l 354 778 l 286 778 z "},"ļ":{"ha":306,"x_min":-7,"x_max":210,"o":"m 104 0 l 104 1042 l 201 1042 l 201 0 l 104 0 m -7 -250 l 104 -64 l 210 -64 l 71 -250 l -7 -250 z "},"ł":{"ha":306,"x_min":-6,"x_max":315,"o":"m 104 0 l 104 1042 l 201 1042 l 201 0 l 104 0 m -6 361 l -6 451 l 315 451 l 315 361 l -6 361 z "},"m":{"ha":1053,"x_min":97,"x_max":969,"o":"m 97 3 l 97 614 l 194 614 l 194 517 q 267 596 222 564 q 375 628 311 628 q 493 599 444 628 q 568 511 542 571 q 642 594 596 561 q 751 628 688 628 q 871 599 822 628 q 944 515 919 569 q 969 385 969 461 l 969 3 l 872 3 l 872 385 q 860 460 872 428 q 820 512 847 493 q 749 531 793 531 q 676 510 711 531 q 617 458 640 490 q 593 385 593 425 l 593 3 l 496 3 l 496 385 q 483 460 496 428 q 444 512 471 493 q 372 531 417 531 q 283 500 321 531 q 222 421 244 469 q 194 315 200 372 l 194 3 l 97 3 z "},"n":{"ha":700,"x_min":97,"x_max":617,"o":"m 97 0 l 97 611 l 194 611 l 194 506 q 274 590 224 556 q 392 624 324 624 q 514 595 464 624 q 590 513 564 567 q 617 382 617 460 l 617 0 l 519 0 l 519 382 q 509 451 519 418 q 473 506 499 485 q 403 526 447 526 q 282 490 328 526 q 215 392 236 454 q 194 256 194 331 l 194 0 l 97 0 z "},"ń":{"ha":700,"x_min":97,"x_max":617,"o":"m 97 0 l 97 611 l 194 611 l 194 506 q 274 590 224 556 q 392 624 324 624 q 514 595 464 624 q 590 513 564 567 q 617 382 617 460 l 617 0 l 519 0 l 519 382 q 509 451 519 418 q 473 506 499 485 q 403 526 447 526 q 282 490 328 526 q 215 392 236 454 q 194 256 194 331 l 194 0 l 97 0 m 328 686 l 439 872 l 544 872 l 406 686 l 328 686 z "},"ň":{"ha":700,"x_min":97,"x_max":617,"o":"m 97 0 l 97 611 l 194 611 l 194 506 q 274 590 224 556 q 392 624 324 624 q 514 595 464 624 q 590 513 564 567 q 617 382 617 460 l 617 0 l 519 0 l 519 382 q 509 451 519 418 q 473 506 499 485 q 403 526 447 526 q 282 490 328 526 q 215 392 236 454 q 194 256 194 331 l 194 0 l 97 0 m 321 690 l 168 875 l 267 875 l 379 724 l 354 724 l 467 875 l 565 875 l 413 690 l 321 690 z "},"ņ":{"ha":700,"x_min":97,"x_max":617,"o":"m 97 0 l 97 611 l 194 611 l 194 506 q 274 590 224 556 q 392 624 324 624 q 514 595 464 624 q 590 513 564 567 q 617 382 617 460 l 617 0 l 519 0 l 519 382 q 509 451 519 418 q 473 506 499 485 q 403 526 447 526 q 282 490 328 526 q 215 392 236 454 q 194 256 194 331 l 194 0 l 97 0 m 208 -243 l 319 -57 l 425 -57 l 286 -243 l 208 -243 z "},"ñ":{"ha":700,"x_min":97,"x_max":617,"o":"m 97 0 l 97 611 l 194 611 l 194 506 q 274 590 224 556 q 392 624 324 624 q 514 595 464 624 q 590 513 564 567 q 617 382 617 460 l 617 0 l 519 0 l 519 382 q 509 451 519 418 q 473 506 499 485 q 403 526 447 526 q 282 490 328 526 q 215 392 236 454 q 194 256 194 331 l 194 0 l 97 0 m 464 676 q 401 693 431 676 q 345 733 371 710 q 297 772 319 756 q 258 789 275 789 q 224 773 236 789 q 207 735 211 757 q 204 693 203 713 l 136 693 q 149 782 135 743 q 194 843 164 821 q 268 865 224 865 q 334 849 304 865 q 390 810 364 832 q 435 771 415 788 q 467 754 454 754 q 503 765 492 754 q 519 798 515 776 q 524 850 524 819 l 592 850 q 585 766 597 806 q 544 701 574 726 q 464 676 514 676 z "},"ŋ":{"ha":700,"x_min":97,"x_max":617,"o":"m 369 -236 q 406 -243 390 -243 q 489 -208 458 -243 q 519 -118 519 -174 l 519 268 l 617 268 l 617 -117 q 592 -226 617 -175 q 523 -307 567 -276 q 422 -337 479 -337 q 381 -334 401 -337 q 339 -324 360 -331 l 369 -236 m 97 0 l 97 611 l 194 611 l 194 506 q 274 590 224 556 q 392 624 324 624 q 514 595 464 624 q 590 513 564 567 q 617 382 617 460 l 617 0 l 519 0 l 519 382 q 509 451 519 418 q 473 506 499 485 q 403 526 447 526 q 282 490 328 526 q 215 392 236 454 q 194 256 194 331 l 194 0 l 97 0 z "},"o":{"ha":750,"x_min":56,"x_max":694,"o":"m 375 -10 q 215 33 288 -10 q 99 147 142 75 q 56 308 56 219 q 99 469 56 397 q 214 585 142 542 q 375 628 286 628 q 536 585 464 628 q 651 469 608 542 q 694 308 694 397 q 651 147 694 219 q 535 33 608 75 q 375 -10 463 -10 m 375 88 q 487 117 436 88 q 567 197 538 147 q 597 308 597 247 q 567 421 597 371 q 488 501 538 471 q 375 531 438 531 q 263 501 314 531 q 183 421 213 471 q 153 308 153 371 q 183 197 153 247 q 263 117 213 147 q 375 88 314 88 z "},"ó":{"ha":750,"x_min":56,"x_max":694,"o":"m 375 -10 q 215 33 288 -10 q 99 147 142 75 q 56 308 56 219 q 99 469 56 397 q 214 585 142 542 q 375 628 286 628 q 536 585 464 628 q 651 469 608 542 q 694 308 694 397 q 651 147 694 219 q 535 33 608 75 q 375 -10 463 -10 m 375 88 q 487 117 436 88 q 567 197 538 147 q 597 308 597 247 q 567 421 597 371 q 488 501 538 471 q 375 531 438 531 q 263 501 314 531 q 183 421 213 471 q 153 308 153 371 q 183 197 153 247 q 263 117 213 147 q 375 88 314 88 m 332 693 l 443 879 l 549 879 l 410 693 l 332 693 z "},"ô":{"ha":750,"x_min":56,"x_max":694,"o":"m 375 -10 q 215 33 288 -10 q 99 147 142 75 q 56 308 56 219 q 99 469 56 397 q 214 585 142 542 q 375 628 286 628 q 536 585 464 628 q 651 469 608 542 q 694 308 694 397 q 651 147 694 219 q 535 33 608 75 q 375 -10 463 -10 m 375 88 q 487 117 436 88 q 567 197 538 147 q 597 308 597 247 q 567 421 597 371 q 488 501 538 471 q 375 531 438 531 q 263 501 314 531 q 183 421 213 471 q 153 308 153 371 q 183 197 153 247 q 263 117 213 147 q 375 88 314 88 m 176 697 l 329 882 l 421 882 l 574 697 l 475 697 l 363 835 l 388 835 l 275 697 l 176 697 z "},"ö":{"ha":750,"x_min":56,"x_max":694,"o":"m 375 -10 q 215 33 288 -10 q 99 147 142 75 q 56 308 56 219 q 99 469 56 397 q 214 585 142 542 q 375 628 286 628 q 536 585 464 628 q 651 469 608 542 q 694 308 694 397 q 651 147 694 219 q 535 33 608 75 q 375 -10 463 -10 m 375 88 q 487 117 436 88 q 567 197 538 147 q 597 308 597 247 q 567 421 597 371 q 488 501 538 471 q 375 531 438 531 q 263 501 314 531 q 183 421 213 471 q 153 308 153 371 q 183 197 153 247 q 263 117 213 147 q 375 88 314 88 m 485 703 q 441 721 458 703 q 424 765 424 739 q 441 809 424 792 q 485 826 458 826 q 529 809 511 826 q 547 765 547 792 q 529 721 547 739 q 485 703 511 703 m 260 703 q 216 721 233 703 q 199 765 199 739 q 216 809 199 792 q 260 826 233 826 q 304 809 286 826 q 322 765 322 792 q 304 721 322 739 q 260 703 286 703 z "},"ò":{"ha":750,"x_min":56,"x_max":694,"o":"m 375 -10 q 215 33 288 -10 q 99 147 142 75 q 56 308 56 219 q 99 469 56 397 q 214 585 142 542 q 375 628 286 628 q 536 585 464 628 q 651 469 608 542 q 694 308 694 397 q 651 147 694 219 q 535 33 608 75 q 375 -10 463 -10 m 375 88 q 487 117 436 88 q 567 197 538 147 q 597 308 597 247 q 567 421 597 371 q 488 501 538 471 q 375 531 438 531 q 263 501 314 531 q 183 421 213 471 q 153 308 153 371 q 183 197 153 247 q 263 117 213 147 q 375 88 314 88 m 326 688 l 174 886 l 279 886 l 404 688 l 326 688 z "},"ő":{"ha":750,"x_min":56,"x_max":694,"o":"m 375 -10 q 215 33 288 -10 q 99 147 142 75 q 56 308 56 219 q 99 469 56 397 q 214 585 142 542 q 375 628 286 628 q 536 585 464 628 q 651 469 608 542 q 694 308 694 397 q 651 147 694 219 q 535 33 608 75 q 375 -10 463 -10 m 375 88 q 487 117 436 88 q 567 197 538 147 q 597 308 597 247 q 567 421 597 371 q 488 501 538 471 q 375 531 438 531 q 263 501 314 531 q 183 421 213 471 q 153 308 153 371 q 183 197 153 247 q 263 117 213 147 q 375 88 314 88 m 236 688 l 319 886 l 418 886 l 307 688 l 236 688 m 390 688 l 474 886 l 572 886 l 461 688 l 390 688 z "},"ō":{"ha":750,"x_min":56,"x_max":694,"o":"m 375 -10 q 215 33 288 -10 q 99 147 142 75 q 56 308 56 219 q 99 469 56 397 q 214 585 142 542 q 375 628 286 628 q 536 585 464 628 q 651 469 608 542 q 694 308 694 397 q 651 147 694 219 q 535 33 608 75 q 375 -10 463 -10 m 375 88 q 487 117 436 88 q 567 197 538 147 q 597 308 597 247 q 567 421 597 371 q 488 501 538 471 q 375 531 438 531 q 263 501 314 531 q 183 421 213 471 q 153 308 153 371 q 183 197 153 247 q 263 117 213 147 q 375 88 314 88 m 108 738 l 108 817 l 640 817 l 640 738 l 108 738 z "},"ø":{"ha":764,"x_min":60,"x_max":703,"o":"m 114 -17 l 60 38 l 132 110 q 81 201 100 150 q 63 308 63 251 q 106 469 63 397 q 221 585 149 542 q 382 628 293 628 q 490 610 439 628 q 581 560 540 592 l 649 628 l 703 574 l 635 506 q 684 415 667 465 q 701 308 701 365 q 658 147 701 219 q 542 33 615 75 q 382 -10 469 -10 q 276 8 326 -10 q 186 56 226 25 l 114 -17 m 382 88 q 494 117 443 88 q 574 197 544 147 q 604 308 604 247 q 565 435 604 381 l 257 126 q 315 98 283 108 q 382 88 347 88 m 201 179 l 511 490 q 451 520 485 510 q 382 531 418 531 q 270 501 321 531 q 190 421 219 471 q 160 308 160 371 q 171 240 160 272 q 201 179 182 207 z "},"õ":{"ha":750,"x_min":56,"x_max":694,"o":"m 375 -10 q 215 33 288 -10 q 99 147 142 75 q 56 308 56 219 q 99 469 56 397 q 214 585 142 542 q 375 628 286 628 q 536 585 464 628 q 651 469 608 542 q 694 308 694 397 q 651 147 694 219 q 535 33 608 75 q 375 -10 463 -10 m 375 88 q 487 117 436 88 q 567 197 538 147 q 597 308 597 247 q 567 421 597 371 q 488 501 538 471 q 375 531 438 531 q 263 501 314 531 q 183 421 213 471 q 153 308 153 371 q 183 197 153 247 q 263 117 213 147 q 375 88 314 88 m 468 683 q 405 700 435 683 q 349 740 375 717 q 301 779 324 763 q 263 796 279 796 q 228 780 240 796 q 211 742 215 764 q 208 700 207 719 l 140 700 q 153 789 139 750 q 198 850 168 828 q 272 872 228 872 q 338 856 308 872 q 394 817 368 839 q 439 778 419 794 q 471 761 458 761 q 508 772 496 761 q 524 805 519 783 q 528 857 528 826 l 596 857 q 590 773 601 813 q 548 708 578 733 q 468 683 518 683 z "},"œ":{"ha":1290,"x_min":56,"x_max":1235,"o":"m 383 -10 q 220 31 294 -10 q 101 142 146 71 q 56 308 56 214 q 99 469 56 397 q 214 585 142 542 q 375 628 286 628 q 530 588 458 628 q 646 479 601 549 q 767 592 694 556 q 907 628 839 628 q 1068 589 993 628 q 1189 481 1143 550 q 1235 319 1235 411 l 1235 268 l 697 268 q 740 174 707 214 q 819 110 772 133 q 917 88 865 88 q 1018 112 969 88 q 1097 179 1067 136 l 1208 179 q 1088 39 1168 88 q 922 -10 1008 -10 q 764 28 836 -10 q 646 139 692 67 q 530 30 601 69 q 383 -10 458 -10 m 375 88 q 487 117 436 88 q 567 197 538 147 q 597 308 597 247 q 567 421 597 371 q 488 501 538 471 q 375 531 438 531 q 263 501 314 531 q 183 421 213 471 q 153 308 153 371 q 183 197 153 247 q 263 117 213 147 q 375 88 314 88 m 700 358 l 1133 358 q 1103 428 1124 396 q 1055 483 1083 460 q 992 518 1026 506 q 917 531 957 531 q 842 518 878 531 q 778 483 807 506 q 728 428 749 460 q 700 358 708 397 z "},"p":{"ha":778,"x_min":97,"x_max":722,"o":"m 97 -347 l 97 611 l 194 611 l 194 507 q 292 592 235 560 q 425 625 350 625 q 578 580 511 625 q 684 463 646 535 q 722 306 722 390 q 684 149 722 222 q 578 31 646 76 q 425 -14 511 -14 q 333 1 375 -14 q 256 42 290 15 q 194 104 222 69 l 194 -347 l 97 -347 m 410 83 q 521 115 472 83 q 597 197 569 146 q 625 306 625 247 q 597 415 625 365 q 521 497 569 465 q 410 528 472 528 q 299 497 347 528 q 222 415 250 465 q 194 306 194 365 q 222 197 194 247 q 299 115 250 146 q 410 83 347 83 z "},"þ":{"ha":778,"x_min":97,"x_max":722,"o":"m 97 -347 l 97 1042 l 194 1042 l 194 507 q 283 587 226 549 q 425 625 340 625 q 578 581 511 625 q 683 464 644 536 q 722 306 722 392 q 683 148 722 221 q 578 31 644 75 q 425 -14 511 -14 q 323 5 368 -14 q 246 51 278 24 q 194 104 214 78 l 194 -347 l 97 -347 m 410 83 q 521 115 472 83 q 597 197 569 146 q 625 306 625 247 q 597 415 625 365 q 521 497 569 465 q 410 528 472 528 q 299 497 347 528 q 222 415 250 465 q 194 306 194 365 q 222 197 194 247 q 299 115 250 146 q 410 83 347 83 z "},"q":{"ha":771,"x_min":56,"x_max":875,"o":"m 583 -97 l 583 104 q 522 42 557 69 q 445 1 488 15 q 353 -14 403 -14 q 199 31 267 -14 q 94 149 132 76 q 56 306 56 222 q 94 463 56 390 q 199 580 132 535 q 353 625 267 625 q 485 592 428 625 q 583 507 543 560 l 583 611 l 681 611 l 681 -97 l 583 -97 m 739 -351 q 676 -340 704 -351 q 626 -309 647 -329 q 594 -260 606 -289 q 583 -199 583 -232 l 583 -89 l 681 -89 l 681 -176 q 685 -221 681 -203 q 702 -247 689 -239 q 739 -256 715 -256 q 779 -236 763 -256 q 807 -200 796 -217 l 875 -247 q 810 -327 849 -303 q 739 -351 771 -351 m 368 83 q 479 115 431 83 q 556 197 528 146 q 583 306 583 247 q 556 415 583 365 q 479 497 528 465 q 368 528 431 528 q 257 497 306 528 q 181 415 208 465 q 153 306 153 365 q 181 197 153 247 q 257 115 208 146 q 368 83 306 83 z "},"r":{"ha":453,"x_min":97,"x_max":411,"o":"m 97 0 l 97 611 l 194 611 l 194 492 q 235 572 213 543 q 288 612 258 600 q 350 624 317 624 q 381 621 365 624 q 411 611 397 618 l 411 485 q 376 508 394 500 q 339 515 358 515 q 262 484 294 515 q 212 405 229 453 q 194 306 194 357 l 194 0 l 97 0 z "},"ŕ":{"ha":453,"x_min":97,"x_max":440,"o":"m 97 0 l 97 611 l 194 611 l 194 492 q 235 572 213 543 q 288 612 258 600 q 350 624 317 624 q 381 621 365 624 q 411 611 397 618 l 411 485 q 376 508 394 500 q 339 515 358 515 q 262 484 294 515 q 212 405 229 453 q 194 306 194 357 l 194 0 l 97 0 m 224 685 l 335 871 l 440 871 l 301 685 l 224 685 z "},"ř":{"ha":453,"x_min":64,"x_max":461,"o":"m 97 0 l 97 611 l 194 611 l 194 492 q 235 572 213 543 q 288 612 258 600 q 350 624 317 624 q 381 621 365 624 q 411 611 397 618 l 411 485 q 376 508 394 500 q 339 515 358 515 q 262 484 294 515 q 212 405 229 453 q 194 306 194 357 l 194 0 l 97 0 m 217 689 l 64 874 l 163 874 l 275 722 l 250 722 l 363 874 l 461 874 l 308 689 l 217 689 z "},"ŗ":{"ha":453,"x_min":4,"x_max":411,"o":"m 97 0 l 97 611 l 194 611 l 194 492 q 235 572 213 543 q 288 612 258 600 q 350 624 317 624 q 381 621 365 624 q 411 611 397 618 l 411 485 q 376 508 394 500 q 339 515 358 515 q 262 484 294 515 q 212 405 229 453 q 194 306 194 357 l 194 0 l 97 0 m 4 -250 l 115 -64 l 221 -64 l 82 -250 l 4 -250 z "},"s":{"ha":558,"x_min":38,"x_max":524,"o":"m 282 -18 q 160 3 211 -18 q 79 66 110 24 q 38 171 49 108 l 140 171 q 172 106 151 131 q 222 72 193 82 q 288 63 251 63 q 388 88 354 63 q 421 163 421 113 q 397 214 421 192 q 325 251 374 236 q 273 267 304 258 q 210 285 242 275 q 151 306 178 294 q 83 360 108 326 q 57 440 57 393 q 88 544 57 503 q 167 605 118 585 q 274 625 217 625 q 419 590 360 625 q 500 460 479 554 l 396 460 q 369 510 386 492 q 328 537 353 529 q 271 544 304 544 q 194 526 229 544 q 160 464 160 508 q 190 401 160 419 q 254 371 221 382 q 302 359 271 367 q 368 341 333 351 q 429 318 403 331 q 500 260 476 296 q 524 175 524 224 q 491 65 524 107 q 403 2 458 22 q 282 -18 349 -18 z "},"ś":{"ha":558,"x_min":38,"x_max":524,"o":"m 282 -18 q 160 3 211 -18 q 79 66 110 24 q 38 171 49 108 l 140 171 q 172 106 151 131 q 222 72 193 82 q 288 63 251 63 q 388 88 354 63 q 421 163 421 113 q 397 214 421 192 q 325 251 374 236 q 273 267 304 258 q 210 285 242 275 q 151 306 178 294 q 83 360 108 326 q 57 440 57 393 q 88 544 57 503 q 167 605 118 585 q 274 625 217 625 q 419 590 360 625 q 500 460 479 554 l 396 460 q 369 510 386 492 q 328 537 353 529 q 271 544 304 544 q 194 526 229 544 q 160 464 160 508 q 190 401 160 419 q 254 371 221 382 q 302 359 271 367 q 368 341 333 351 q 429 318 403 331 q 500 260 476 296 q 524 175 524 224 q 491 65 524 107 q 403 2 458 22 q 282 -18 349 -18 m 229 682 l 340 868 l 446 868 l 307 682 l 229 682 z "},"š":{"ha":558,"x_min":38,"x_max":524,"o":"m 282 -18 q 160 3 211 -18 q 79 66 110 24 q 38 171 49 108 l 140 171 q 172 106 151 131 q 222 72 193 82 q 288 63 251 63 q 388 88 354 63 q 421 163 421 113 q 397 214 421 192 q 325 251 374 236 q 273 267 304 258 q 210 285 242 275 q 151 306 178 294 q 83 360 108 326 q 57 440 57 393 q 88 544 57 503 q 167 605 118 585 q 274 625 217 625 q 419 590 360 625 q 500 460 479 554 l 396 460 q 369 510 386 492 q 328 537 353 529 q 271 544 304 544 q 194 526 229 544 q 160 464 160 508 q 190 401 160 419 q 254 371 221 382 q 302 359 271 367 q 368 341 333 351 q 429 318 403 331 q 500 260 476 296 q 524 175 524 224 q 491 65 524 107 q 403 2 458 22 q 282 -18 349 -18 m 222 686 l 69 871 l 168 871 l 281 719 l 256 719 l 368 871 l 467 871 l 314 686 l 222 686 z "},"ş":{"ha":558,"x_min":38,"x_max":524,"o":"m 282 -18 q 160 3 211 -18 q 79 66 110 24 q 38 171 49 108 l 140 171 q 172 106 151 131 q 222 72 193 82 q 288 63 251 63 q 388 88 354 63 q 421 163 421 113 q 397 214 421 192 q 325 251 374 236 q 273 267 304 258 q 210 285 242 275 q 151 306 178 294 q 83 360 108 326 q 57 440 57 393 q 88 544 57 503 q 167 605 118 585 q 274 625 217 625 q 419 590 360 625 q 500 460 479 554 l 396 460 q 369 510 386 492 q 328 537 353 529 q 271 544 304 544 q 194 526 229 544 q 160 464 160 508 q 190 401 160 419 q 254 371 221 382 q 302 359 271 367 q 368 341 333 351 q 429 318 403 331 q 500 260 476 296 q 524 175 524 224 q 491 65 524 107 q 403 2 458 22 q 282 -18 349 -18 m 103 -332 l 138 -260 q 198 -276 168 -269 q 256 -282 228 -282 q 334 -267 301 -282 q 367 -208 367 -251 q 340 -159 367 -176 q 275 -142 313 -142 q 226 -147 251 -142 q 179 -154 201 -151 l 271 49 l 349 50 l 289 -75 q 325 -74 290 -74 q 407 -109 369 -74 q 444 -210 444 -144 q 416 -297 444 -264 q 344 -346 388 -331 q 256 -361 301 -361 q 179 -353 219 -361 q 103 -332 139 -346 z "},"ș":{"ha":558,"x_min":38,"x_max":524,"o":"m 282 -18 q 160 3 211 -18 q 79 66 110 24 q 38 171 49 108 l 140 171 q 172 106 151 131 q 222 72 193 82 q 288 63 251 63 q 388 88 354 63 q 421 163 421 113 q 397 214 421 192 q 325 251 374 236 q 273 267 304 258 q 210 285 242 275 q 151 306 178 294 q 83 360 108 326 q 57 440 57 393 q 88 544 57 503 q 167 605 118 585 q 274 625 217 625 q 419 590 360 625 q 500 460 479 554 l 396 460 q 369 510 386 492 q 328 537 353 529 q 271 544 304 544 q 194 526 229 544 q 160 464 160 508 q 190 401 160 419 q 254 371 221 382 q 302 359 271 367 q 368 341 333 351 q 429 318 403 331 q 500 260 476 296 q 524 175 524 224 q 491 65 524 107 q 403 2 458 22 q 282 -18 349 -18 m 122 -260 l 233 -74 l 339 -74 l 200 -260 l 122 -260 z "},"ß":{"ha":765,"x_min":97,"x_max":710,"o":"m 97 0 l 97 613 q 122 795 97 719 q 208 911 147 871 q 376 951 269 951 q 504 924 444 951 q 601 847 564 897 q 638 724 638 796 q 601 609 638 656 q 513 536 564 563 q 651 444 593 506 q 710 285 710 382 q 668 140 710 204 q 558 38 626 75 q 410 0 490 0 l 318 0 l 318 93 l 410 93 q 508 120 463 93 q 583 193 554 147 q 611 294 611 239 q 583 391 611 350 q 508 455 554 432 q 410 478 463 478 l 363 478 l 363 564 l 376 564 q 457 583 421 564 q 514 636 493 603 q 535 711 535 669 q 490 815 535 772 q 376 857 444 857 q 259 824 297 857 q 209 728 221 790 q 197 578 197 665 l 197 0 l 97 0 z "},"t":{"ha":471,"x_min":35,"x_max":436,"o":"m 188 0 l 188 521 l 35 521 l 35 611 l 188 611 l 188 849 l 285 849 l 285 611 l 436 611 l 436 521 l 285 521 l 285 0 l 188 0 z "},"ť":{"ha":471,"x_min":35,"x_max":468,"o":"m 188 0 l 188 521 l 35 521 l 35 611 l 188 611 l 188 849 l 285 849 l 285 611 l 436 611 l 436 521 l 285 521 l 285 0 l 188 0 m 340 685 l 372 949 l 468 949 l 408 685 l 340 685 z "},"ț":{"ha":471,"x_min":35,"x_max":436,"o":"m 188 0 l 188 521 l 35 521 l 35 611 l 188 611 l 188 849 l 285 849 l 285 611 l 436 611 l 436 521 l 285 521 l 285 0 l 188 0 m 76 -250 l 188 -64 l 293 -64 l 154 -250 l 76 -250 z "},"ꜩ":{"ha":1024,"x_min":42,"x_max":954,"o":"m 208 1 l 208 849 l 306 849 l 306 1 l 208 1 m 42 522 l 42 611 l 911 611 l 693 318 q 827 281 768 314 q 920 192 886 249 q 954 54 954 135 q 913 -95 954 -33 q 806 -190 872 -157 q 661 -224 739 -224 q 609 -220 635 -224 q 559 -208 583 -217 q 513 -189 535 -200 l 569 -110 q 613 -127 590 -121 q 657 -133 636 -133 q 800 -82 744 -133 q 856 56 856 -31 q 802 183 856 139 q 658 228 749 228 l 510 228 l 728 522 l 42 522 z "},"u":{"ha":700,"x_min":97,"x_max":617,"o":"m 315 -12 q 194 20 243 -12 q 122 107 146 53 q 97 229 97 161 l 97 611 l 194 611 l 194 229 q 205 160 194 193 q 241 106 215 126 q 311 85 267 85 q 438 121 393 85 q 501 219 483 157 q 519 356 519 281 l 519 611 l 617 611 l 617 0 l 519 0 l 519 104 q 434 17 485 46 q 315 -12 383 -12 z "},"ú":{"ha":700,"x_min":97,"x_max":617,"o":"m 315 -12 q 194 20 243 -12 q 122 107 146 53 q 97 229 97 161 l 97 611 l 194 611 l 194 229 q 205 160 194 193 q 241 106 215 126 q 311 85 267 85 q 438 121 393 85 q 501 219 483 157 q 519 356 519 281 l 519 611 l 617 611 l 617 0 l 519 0 l 519 104 q 434 17 485 46 q 315 -12 383 -12 m 313 668 l 424 854 l 529 854 l 390 668 l 313 668 z "},"ŭ":{"ha":700,"x_min":97,"x_max":617,"o":"m 315 -12 q 194 20 243 -12 q 122 107 146 53 q 97 229 97 161 l 97 611 l 194 611 l 194 229 q 205 160 194 193 q 241 106 215 126 q 311 85 267 85 q 438 121 393 85 q 501 219 483 157 q 519 356 519 281 l 519 611 l 617 611 l 617 0 l 519 0 l 519 104 q 434 17 485 46 q 315 -12 383 -12 m 547 851 q 522 765 547 806 q 451 697 496 724 q 353 671 407 671 q 258 696 303 671 q 186 763 214 721 q 158 851 158 804 l 260 851 q 288 784 260 814 q 357 754 317 754 q 404 768 383 754 q 438 804 425 782 q 450 851 450 826 l 547 851 z "},"û":{"ha":700,"x_min":97,"x_max":617,"o":"m 315 -12 q 194 20 243 -12 q 122 107 146 53 q 97 229 97 161 l 97 611 l 194 611 l 194 229 q 205 160 194 193 q 241 106 215 126 q 311 85 267 85 q 438 121 393 85 q 501 219 483 157 q 519 356 519 281 l 519 611 l 617 611 l 617 0 l 519 0 l 519 104 q 434 17 485 46 q 315 -12 383 -12 m 157 672 l 310 857 l 401 857 l 554 672 l 456 672 l 343 810 l 368 810 l 256 672 l 157 672 z "},"ü":{"ha":700,"x_min":97,"x_max":617,"o":"m 315 -12 q 194 20 243 -12 q 122 107 146 53 q 97 229 97 161 l 97 611 l 194 611 l 194 229 q 205 160 194 193 q 241 106 215 126 q 311 85 267 85 q 438 121 393 85 q 501 219 483 157 q 519 356 519 281 l 519 611 l 617 611 l 617 0 l 519 0 l 519 104 q 434 17 485 46 q 315 -12 383 -12 m 465 678 q 422 696 439 678 q 404 740 404 714 q 422 784 404 767 q 465 801 439 801 q 510 784 492 801 q 528 740 528 767 q 510 696 528 714 q 465 678 492 678 m 240 678 q 197 696 214 678 q 179 740 179 714 q 197 784 179 767 q 240 801 214 801 q 285 784 267 801 q 303 740 303 767 q 285 696 303 714 q 240 678 267 678 z "},"ù":{"ha":700,"x_min":97,"x_max":617,"o":"m 315 -12 q 194 20 243 -12 q 122 107 146 53 q 97 229 97 161 l 97 611 l 194 611 l 194 229 q 205 160 194 193 q 241 106 215 126 q 311 85 267 85 q 438 121 393 85 q 501 219 483 157 q 519 356 519 281 l 519 611 l 617 611 l 617 0 l 519 0 l 519 104 q 434 17 485 46 q 315 -12 383 -12 m 307 663 l 154 861 l 260 861 l 385 663 l 307 663 z "},"ű":{"ha":700,"x_min":97,"x_max":617,"o":"m 315 -12 q 194 20 243 -12 q 122 107 146 53 q 97 229 97 161 l 97 611 l 194 611 l 194 229 q 205 160 194 193 q 241 106 215 126 q 311 85 267 85 q 438 121 393 85 q 501 219 483 157 q 519 356 519 281 l 519 611 l 617 611 l 617 0 l 519 0 l 519 104 q 434 17 485 46 q 315 -12 383 -12 m 217 663 l 300 861 l 399 861 l 288 663 l 217 663 m 371 663 l 454 861 l 553 861 l 442 663 l 371 663 z "},"ū":{"ha":700,"x_min":89,"x_max":621,"o":"m 315 -12 q 194 20 243 -12 q 122 107 146 53 q 97 229 97 161 l 97 611 l 194 611 l 194 229 q 205 160 194 193 q 241 106 215 126 q 311 85 267 85 q 438 121 393 85 q 501 219 483 157 q 519 356 519 281 l 519 611 l 617 611 l 617 0 l 519 0 l 519 104 q 434 17 485 46 q 315 -12 383 -12 m 89 713 l 89 792 l 621 792 l 621 713 l 89 713 z "},"ų":{"ha":700,"x_min":97,"x_max":631,"o":"m 315 -12 q 194 20 243 -12 q 122 107 146 53 q 97 229 97 161 l 97 611 l 194 611 l 194 229 q 205 160 194 193 q 241 106 215 126 q 311 85 267 85 q 438 121 393 85 q 501 219 483 157 q 519 356 519 281 l 519 611 l 617 611 l 617 0 l 519 0 l 519 104 q 434 17 485 46 q 315 -12 383 -12 m 554 -192 q 508 -181 529 -192 q 473 -151 486 -169 q 460 -111 460 -132 q 477 -47 460 -78 q 521 6 494 -15 l 601 6 q 557 -40 575 -14 q 539 -86 539 -67 q 551 -111 539 -104 q 574 -118 564 -118 q 599 -110 582 -118 q 629 -93 617 -103 l 631 -169 q 597 -186 617 -181 q 554 -192 576 -192 z "},"ů":{"ha":700,"x_min":97,"x_max":617,"o":"m 315 -12 q 194 20 243 -12 q 122 107 146 53 q 97 229 97 161 l 97 611 l 194 611 l 194 229 q 205 160 194 193 q 241 106 215 126 q 311 85 267 85 q 438 121 393 85 q 501 219 483 157 q 519 356 519 281 l 519 611 l 617 611 l 617 0 l 519 0 l 519 104 q 434 17 485 46 q 315 -12 383 -12 m 363 646 q 286 665 322 646 q 228 719 250 685 q 206 797 206 754 q 227 875 206 840 q 284 931 249 910 q 363 951 319 951 q 440 932 404 951 q 497 878 475 913 q 519 797 519 843 q 474 690 519 733 q 363 646 428 646 m 364 726 q 417 747 396 726 q 438 799 438 768 q 416 849 438 829 q 363 869 394 869 q 309 849 331 869 q 288 799 288 829 q 310 747 288 768 q 364 726 333 726 z "},"v":{"ha":590,"x_min":14,"x_max":576,"o":"m 272 -1 l 14 611 l 119 611 l 296 157 l 471 611 l 576 611 l 319 -1 l 272 -1 z "},"w":{"ha":1006,"x_min":14,"x_max":992,"o":"m 274 1 l 14 611 l 122 611 l 306 140 l 478 581 l 528 581 l 700 140 l 883 611 l 992 611 l 735 1 l 669 1 l 503 415 l 339 1 l 274 1 z "},"ẃ":{"ha":1006,"x_min":14,"x_max":992,"o":"m 274 1 l 14 611 l 122 611 l 306 140 l 478 581 l 528 581 l 700 140 l 883 611 l 992 611 l 735 1 l 669 1 l 503 415 l 339 1 l 274 1 m 458 672 l 569 858 l 675 858 l 536 672 l 458 672 z "},"ŵ":{"ha":1006,"x_min":14,"x_max":992,"o":"m 274 1 l 14 611 l 122 611 l 306 140 l 478 581 l 528 581 l 700 140 l 883 611 l 992 611 l 735 1 l 669 1 l 503 415 l 339 1 l 274 1 m 303 676 l 456 861 l 547 861 l 700 676 l 601 676 l 489 814 l 514 814 l 401 676 l 303 676 z "},"ẅ":{"ha":1006,"x_min":14,"x_max":992,"o":"m 274 1 l 14 611 l 122 611 l 306 140 l 478 581 l 528 581 l 700 140 l 883 611 l 992 611 l 735 1 l 669 1 l 503 415 l 339 1 l 274 1 m 611 682 q 567 700 585 682 q 550 744 550 718 q 567 788 550 771 q 611 806 585 806 q 656 788 638 806 q 674 744 674 771 q 656 700 674 718 q 611 682 638 682 m 386 682 q 342 700 360 682 q 325 744 325 718 q 342 788 325 771 q 386 806 360 806 q 431 788 413 806 q 449 744 449 771 q 431 700 449 718 q 386 682 413 682 z "},"ẁ":{"ha":1006,"x_min":14,"x_max":992,"o":"m 274 1 l 14 611 l 122 611 l 306 140 l 478 581 l 528 581 l 700 140 l 883 611 l 992 611 l 735 1 l 669 1 l 503 415 l 339 1 l 274 1 m 453 667 l 300 865 l 406 865 l 531 667 l 453 667 z "},"x":{"ha":622,"x_min":35,"x_max":588,"o":"m 35 0 l 249 307 l 35 611 l 158 611 l 311 376 l 464 611 l 588 611 l 374 306 l 588 0 l 464 0 l 311 238 l 158 0 l 35 0 z "},"y":{"ha":618,"x_min":14,"x_max":604,"o":"m 64 -347 l 269 100 l 14 611 l 125 611 l 321 201 l 496 611 l 604 611 l 182 -347 l 64 -347 z "},"ý":{"ha":618,"x_min":14,"x_max":604,"o":"m 64 -347 l 269 100 l 14 611 l 125 611 l 321 201 l 496 611 l 604 611 l 182 -347 l 64 -347 m 271 674 l 382 860 l 488 860 l 349 674 l 271 674 z "},"ŷ":{"ha":618,"x_min":14,"x_max":604,"o":"m 64 -347 l 269 100 l 14 611 l 125 611 l 321 201 l 496 611 l 604 611 l 182 -347 l 64 -347 m 115 678 l 268 863 l 360 863 l 513 678 l 414 678 l 301 815 l 326 815 l 214 678 l 115 678 z "},"ÿ":{"ha":618,"x_min":14,"x_max":604,"o":"m 64 -347 l 269 100 l 14 611 l 125 611 l 321 201 l 496 611 l 604 611 l 182 -347 l 64 -347 m 424 683 q 380 701 397 683 q 363 746 363 719 q 380 790 363 772 q 424 807 397 807 q 468 790 450 807 q 486 746 486 772 q 468 701 486 719 q 424 683 450 683 m 199 683 q 155 701 172 683 q 138 746 138 719 q 155 790 138 772 q 199 807 172 807 q 243 790 225 807 q 261 746 261 772 q 243 701 261 719 q 199 683 225 683 z "},"ỳ":{"ha":618,"x_min":14,"x_max":604,"o":"m 64 -347 l 269 100 l 14 611 l 125 611 l 321 201 l 496 611 l 604 611 l 182 -347 l 64 -347 m 265 668 l 113 867 l 218 867 l 343 668 l 265 668 z "},"z":{"ha":632,"x_min":21,"x_max":597,"o":"m 21 0 l 393 521 l 44 521 l 44 611 l 579 611 l 207 90 l 597 90 l 597 0 l 21 0 z "},"ź":{"ha":632,"x_min":21,"x_max":597,"o":"m 21 0 l 393 521 l 44 521 l 44 611 l 579 611 l 207 90 l 597 90 l 597 0 l 21 0 m 256 675 l 367 861 l 472 861 l 333 675 l 256 675 z "},"ž":{"ha":632,"x_min":21,"x_max":597,"o":"m 21 0 l 393 521 l 44 521 l 44 611 l 579 611 l 207 90 l 597 90 l 597 0 l 21 0 m 249 679 l 96 864 l 194 864 l 307 713 l 282 713 l 394 864 l 493 864 l 340 679 l 249 679 z "},"ż":{"ha":632,"x_min":21,"x_max":597,"o":"m 21 0 l 393 521 l 44 521 l 44 611 l 579 611 l 207 90 l 597 90 l 597 0 l 21 0 m 300 696 q 256 714 274 696 q 238 758 238 732 q 256 801 238 783 q 300 819 274 819 q 343 801 325 819 q 361 758 361 783 q 343 714 361 732 q 300 696 325 696 z "},"ª":{"ha":589,"x_min":47,"x_max":515,"o":"m 269 481 q 155 514 206 481 q 76 602 104 547 q 47 719 47 657 q 76 837 47 782 q 155 926 104 892 q 269 960 206 960 q 369 935 326 960 q 443 871 413 910 l 443 949 l 515 949 l 515 490 l 443 490 l 443 568 q 397 522 422 542 q 339 491 371 501 q 269 481 307 481 m 282 553 q 365 576 328 553 q 422 637 401 599 q 443 719 443 675 q 422 802 443 764 q 365 863 401 840 q 282 886 328 886 q 198 863 235 886 q 140 802 161 840 q 119 719 119 764 q 140 637 119 675 q 198 576 161 599 q 282 553 235 553 z "},"º":{"ha":563,"x_min":42,"x_max":521,"o":"m 282 485 q 161 516 215 485 q 74 601 107 547 q 42 724 42 656 q 74 844 42 790 q 160 931 106 899 q 282 963 215 963 q 403 931 349 963 q 489 844 457 899 q 521 724 521 790 q 488 601 521 656 q 401 516 456 547 q 282 485 347 485 m 282 557 q 365 579 328 557 q 426 640 403 601 q 449 724 449 678 q 426 807 449 769 q 365 867 403 844 q 282 890 328 890 q 197 867 235 890 q 138 807 160 844 q 115 724 115 769 q 138 640 115 678 q 198 579 160 601 q 282 557 236 557 z "},"Ξ":{"ha":756,"x_min":97,"x_max":658,"o":"m 97 854 l 97 944 l 658 944 l 658 854 l 97 854 m 97 0 l 97 90 l 658 90 l 658 0 l 97 0 m 139 426 l 139 518 l 603 518 l 603 426 l 139 426 z "},"⁄":{"ha":617,"x_min":63,"x_max":554,"o":"m 63 0 l 460 943 l 554 943 l 156 0 l 63 0 z "}," ":{"ha":375,"x_min":0,"x_max":0,"o":""}," ":{"ha":375,"x_min":0,"x_max":0,"o":""},"\r":{"ha":0,"x_min":0,"x_max":0,"o":""},".":{"ha":371,"x_min":104,"x_max":267,"o":"m 185 -14 q 129 10 154 -14 q 104 64 104 33 q 128 120 104 97 q 185 143 151 143 q 243 121 219 143 q 267 65 267 99 q 242 9 267 32 q 185 -14 217 -14 z "},",":{"ha":322,"x_min":54,"x_max":222,"o":"m 97 -156 l 57 -103 q 104 -59 78 -87 q 138 -1 131 -31 l 131 -1 q 78 20 101 -1 q 54 76 54 42 q 65 117 54 99 q 94 145 76 135 q 135 156 113 156 q 200 126 178 156 q 222 44 222 97 q 205 -31 222 6 q 159 -99 188 -68 q 97 -156 131 -131 z "},":":{"ha":371,"x_min":104,"x_max":267,"o":"m 185 468 q 129 492 154 468 q 104 546 104 515 q 128 602 104 579 q 185 625 151 625 q 243 603 219 625 q 267 547 267 581 q 242 491 267 514 q 185 468 217 468 m 185 -14 q 129 10 154 -14 q 104 64 104 33 q 128 120 104 97 q 185 143 151 143 q 243 121 219 143 q 267 65 267 99 q 242 9 267 32 q 185 -14 217 -14 z "},";":{"ha":371,"x_min":104,"x_max":275,"o":"m 150 -156 l 110 -103 q 157 -59 131 -87 q 190 -1 183 -31 l 188 -1 q 131 20 156 -1 q 107 76 107 42 q 118 117 107 99 q 147 145 129 135 q 188 156 165 156 q 253 126 231 156 q 275 44 275 97 q 258 -31 275 6 q 212 -99 240 -68 q 150 -156 183 -131 m 185 468 q 129 492 154 468 q 104 546 104 515 q 128 602 104 579 q 185 625 151 625 q 243 603 219 625 q 267 547 267 581 q 242 491 267 514 q 185 468 217 468 z "},"…":{"ha":926,"x_min":104,"x_max":822,"o":"m 740 -14 q 685 10 710 -14 q 660 64 660 33 q 683 120 660 97 q 740 143 707 143 q 799 121 775 143 q 822 65 822 99 q 797 9 822 32 q 740 -14 772 -14 m 185 -14 q 129 10 154 -14 q 104 64 104 33 q 128 120 104 97 q 185 143 151 143 q 243 121 219 143 q 267 65 267 99 q 242 9 267 32 q 185 -14 217 -14 m 463 -14 q 407 10 432 -14 q 382 64 382 33 q 406 120 382 97 q 463 143 429 143 q 521 121 497 143 q 544 65 544 99 q 519 9 544 32 q 463 -14 494 -14 z "},"!":{"ha":357,"x_min":97,"x_max":260,"o":"m 143 282 l 117 944 l 239 944 l 213 282 l 143 282 m 179 -14 q 122 9 146 -14 q 97 64 97 32 q 122 119 97 96 q 179 143 146 143 q 235 120 211 143 q 260 65 260 97 q 235 9 260 32 q 179 -14 211 -14 z "},"¡":{"ha":357,"x_min":100,"x_max":263,"o":"m 217 325 l 243 -337 l 121 -337 l 147 325 l 217 325 m 181 621 q 238 598 214 621 q 263 543 263 575 q 238 488 263 511 q 181 464 214 464 q 124 487 149 464 q 100 542 100 510 q 124 598 100 575 q 181 621 149 621 z "},"?":{"ha":690,"x_min":69,"x_max":610,"o":"m 293 282 l 293 428 q 315 521 293 479 q 388 601 336 563 q 442 640 419 625 q 476 665 464 656 q 502 694 492 676 q 513 729 513 713 q 486 808 513 779 q 421 851 460 838 q 343 864 382 864 q 265 850 304 864 q 199 808 226 836 q 168 733 172 779 l 69 733 q 156 900 81 842 q 342 958 232 958 q 475 932 414 958 q 573 854 536 906 q 610 729 610 803 q 576 638 610 678 q 511 574 543 597 q 476 549 497 564 q 444 525 456 535 q 403 477 415 501 q 390 426 390 453 l 390 282 l 293 282 m 344 -14 q 287 9 311 -14 q 263 64 263 32 q 287 119 263 96 q 344 143 311 143 q 401 120 376 143 q 425 65 425 97 q 401 9 425 32 q 344 -14 376 -14 z "},"¿":{"ha":683,"x_min":79,"x_max":619,"o":"m 396 332 l 396 186 q 375 93 396 135 q 301 13 354 51 q 248 -25 271 -10 q 213 -51 225 -40 q 188 -81 199 -62 q 176 -115 176 -99 q 203 -194 176 -164 q 269 -237 229 -224 q 346 -250 308 -250 q 424 -236 386 -250 q 490 -193 463 -222 q 521 -119 517 -164 l 619 -119 q 533 -286 610 -228 q 347 -344 457 -344 q 214 -318 275 -344 q 116 -240 153 -292 q 79 -115 79 -189 q 113 -22 79 -62 q 178 40 147 18 q 213 65 193 51 q 244 89 233 79 q 286 137 274 113 q 299 188 299 161 l 299 332 l 396 332 m 344 628 q 402 605 378 628 q 426 550 426 582 q 402 494 426 518 q 344 471 378 471 q 288 494 313 471 q 264 549 264 517 q 288 605 264 582 q 344 628 313 628 z "},"·":{"ha":371,"x_min":104,"x_max":267,"o":"m 185 244 q 129 268 154 244 q 104 322 104 292 q 128 378 104 356 q 185 401 151 401 q 243 379 219 401 q 267 324 267 357 q 242 267 267 290 q 185 244 217 244 z "},"•":{"ha":417,"x_min":50,"x_max":367,"o":"m 208 289 q 129 310 165 289 q 72 368 93 332 q 50 447 50 404 q 72 527 50 492 q 129 584 93 563 q 208 606 165 606 q 288 584 253 606 q 345 527 324 563 q 367 447 367 492 q 345 368 367 404 q 288 310 324 332 q 208 289 253 289 z "},"*":{"ha":736,"x_min":107,"x_max":631,"o":"m 267 544 l 169 615 l 328 769 l 107 808 l 143 922 l 343 817 l 308 1042 l 428 1042 l 393 817 l 593 922 l 631 808 l 408 769 l 567 615 l 469 544 l 368 740 l 267 544 z "},"#":{"ha":786,"x_min":33,"x_max":753,"o":"m 226 -3 l 142 7 l 174 285 l 33 285 l 33 365 l 189 365 l 219 603 l 74 603 l 74 683 l 232 683 l 263 954 l 346 944 l 315 683 l 529 683 l 561 954 l 644 944 l 614 683 l 753 683 l 753 603 l 603 603 l 574 365 l 713 365 l 713 282 l 560 282 l 528 -3 l 444 7 l 475 282 l 260 282 l 226 -3 m 274 365 l 489 365 l 517 603 l 304 603 l 274 365 z "},"/":{"ha":747,"x_min":60,"x_max":703,"o":"m 60 -279 l 599 1042 l 703 1042 l 164 -279 l 60 -279 z "},"\\":{"ha":747,"x_min":60,"x_max":703,"o":"m 600 -279 l 60 1042 l 164 1042 l 703 -279 l 600 -279 z "},"-":{"ha":569,"x_min":53,"x_max":518,"o":"m 53 269 l 53 350 l 518 350 l 518 269 l 53 269 z "},"–":{"ha":542,"x_min":32,"x_max":511,"o":"m 32 250 l 32 331 l 511 331 l 511 250 l 32 250 z "},"—":{"ha":957,"x_min":32,"x_max":926,"o":"m 32 250 l 32 331 l 926 331 l 926 250 l 32 250 z "},"_":{"ha":722,"x_min":-14,"x_max":736,"o":"m -14 -203 l -14 -122 l 736 -122 l 736 -203 l -14 -203 z "},"(":{"ha":428,"x_min":79,"x_max":339,"o":"m 246 -311 q 178 -177 208 -257 q 125 -3 147 -97 q 91 186 103 90 q 79 365 79 282 q 98 603 79 481 q 153 839 117 725 q 244 1042 190 953 l 339 1042 q 244 826 281 943 q 190 590 207 710 q 172 364 172 471 q 190 136 172 254 q 243 -97 207 18 q 338 -311 279 -211 l 246 -311 z "},")":{"ha":428,"x_min":89,"x_max":349,"o":"m 90 -311 q 185 -95 149 -211 q 239 140 222 21 q 256 364 256 258 q 238 594 256 475 q 183 830 219 714 q 89 1042 146 946 l 183 1042 q 296 743 261 878 q 340 512 331 608 q 349 367 349 415 q 337 191 349 286 q 303 1 325 96 q 250 -175 281 -93 q 182 -311 219 -257 l 90 -311 z "},"{":{"ha":528,"x_min":111,"x_max":417,"o":"m 331 -347 q 274 -335 299 -347 q 233 -297 250 -322 q 208 -237 217 -272 q 200 -156 200 -201 l 200 158 q 172 224 200 199 q 111 264 144 250 l 111 358 q 178 408 156 375 q 200 493 200 442 l 200 860 q 210 947 200 906 q 252 1015 221 989 q 346 1042 283 1042 l 417 1040 l 417 971 q 351 976 378 979 q 312 958 325 972 q 299 918 299 943 l 299 483 q 267 377 299 418 q 181 306 236 336 q 262 253 225 285 q 299 161 299 221 l 299 -151 q 312 -233 299 -201 q 351 -275 325 -264 q 417 -278 378 -286 l 417 -346 l 331 -347 z "},"}":{"ha":528,"x_min":111,"x_max":417,"o":"m 149 -347 l 111 -346 l 111 -278 q 177 -275 151 -286 q 216 -233 203 -264 q 229 -151 229 -201 l 229 161 q 247 228 229 201 q 291 273 264 254 q 347 306 318 292 q 260 377 292 336 q 229 483 229 418 l 229 918 q 216 958 229 943 q 177 976 203 972 q 111 971 151 979 l 111 1040 l 182 1042 q 276 1015 246 1042 q 317 947 307 989 q 328 860 328 906 l 328 493 q 350 408 328 442 q 417 358 372 375 l 417 264 q 356 224 383 250 q 328 158 328 199 l 328 -156 q 314 -249 328 -206 q 262 -320 300 -293 q 149 -347 224 -347 z "},"[":{"ha":489,"x_min":136,"x_max":388,"o":"m 136 -296 l 136 1042 l 388 1042 l 388 974 l 228 974 l 228 -226 l 388 -226 l 388 -296 l 136 -296 z "},"]":{"ha":489,"x_min":101,"x_max":353,"o":"m 101 -296 l 101 -226 l 261 -226 l 261 974 l 101 974 l 101 1042 l 353 1042 l 353 -296 l 101 -296 z "},"‚":{"ha":322,"x_min":54,"x_max":222,"o":"m 97 -189 l 57 -131 q 85 -95 68 -118 q 118 -47 103 -72 q 138 0 133 -21 l 135 0 q 78 24 103 0 q 54 85 54 47 q 65 129 54 110 q 94 160 76 149 q 135 172 113 172 q 200 140 178 172 q 222 50 222 107 q 205 -38 222 7 q 159 -122 188 -83 q 97 -189 131 -161 z "},"„":{"ha":507,"x_min":54,"x_max":453,"o":"m 328 -189 l 288 -131 q 316 -95 299 -118 q 349 -47 333 -72 q 368 0 364 -21 l 365 0 q 309 24 333 0 q 285 85 285 47 q 296 129 285 110 q 325 160 307 149 q 365 172 343 172 q 431 140 408 172 q 453 50 453 107 q 435 -38 453 7 q 390 -122 418 -83 q 328 -189 361 -161 m 97 -189 l 57 -131 q 85 -95 68 -118 q 118 -47 103 -72 q 138 0 133 -21 l 135 0 q 78 24 103 0 q 54 85 54 47 q 65 129 54 110 q 94 160 76 149 q 135 172 113 172 q 200 140 178 172 q 222 50 222 107 q 205 -38 222 7 q 159 -122 188 -83 q 97 -189 131 -161 z "},"“":{"ha":483,"x_min":38,"x_max":413,"o":"m 114 636 q 54 668 71 636 q 38 743 38 700 q 55 823 38 782 q 101 901 72 864 q 161 961 129 938 l 201 907 q 169 872 189 896 q 135 823 150 849 q 119 778 121 797 l 129 776 q 169 755 153 775 q 186 708 186 735 q 175 670 186 686 q 148 645 164 654 q 114 636 132 636 m 328 636 q 267 668 285 636 q 250 743 250 700 q 267 824 250 782 q 314 901 285 865 q 375 961 343 938 l 413 907 q 381 873 400 896 q 348 824 363 850 q 332 779 333 799 l 343 778 q 383 756 367 776 q 399 708 399 736 q 388 670 399 686 q 360 645 376 654 q 328 636 344 636 z "},"”":{"ha":483,"x_min":38,"x_max":414,"o":"m 78 633 l 38 686 q 69 722 50 699 q 104 770 89 744 q 119 815 119 796 l 113 815 q 70 837 88 815 q 53 886 53 858 q 64 924 53 908 q 92 949 75 940 q 125 958 108 958 q 186 926 169 958 q 203 850 203 894 q 185 770 203 811 q 140 694 168 729 q 78 633 111 658 m 290 633 l 250 686 q 283 722 264 699 q 318 770 303 744 q 333 815 333 796 l 324 815 q 283 839 301 818 q 265 886 265 860 q 276 924 265 908 q 304 949 288 940 q 338 958 321 958 q 398 926 382 958 q 414 850 414 894 q 397 772 414 813 q 351 694 379 731 q 290 633 324 658 z "},"‘":{"ha":251,"x_min":38,"x_max":201,"o":"m 114 636 q 54 668 71 636 q 38 743 38 700 q 55 823 38 782 q 101 901 72 864 q 161 961 129 938 l 201 910 q 169 873 189 897 q 135 823 150 849 q 119 778 121 797 l 129 778 q 169 756 153 776 q 186 708 186 735 q 175 670 186 686 q 148 645 164 654 q 114 636 132 636 z "},"’":{"ha":251,"x_min":38,"x_max":203,"o":"m 78 633 l 38 686 q 69 722 50 699 q 104 770 89 744 q 119 815 119 796 l 113 815 q 70 837 88 815 q 53 886 53 858 q 64 924 53 908 q 92 949 75 940 q 125 958 108 958 q 186 926 169 958 q 203 850 203 894 q 185 770 203 811 q 140 694 168 729 q 78 633 111 658 z "},"«":{"ha":883,"x_min":96,"x_max":788,"o":"m 788 38 l 435 260 l 435 358 l 788 581 l 788 475 l 496 292 l 496 328 l 788 142 l 788 38 m 449 38 l 96 260 l 96 358 l 449 581 l 449 475 l 157 292 l 157 328 l 449 142 l 449 38 z "},"»":{"ha":875,"x_min":96,"x_max":786,"o":"m 433 38 l 433 142 l 725 328 l 725 292 l 433 475 l 433 581 l 786 358 l 786 260 l 433 38 m 96 38 l 96 142 l 388 328 l 388 292 l 96 475 l 96 581 l 449 358 l 449 260 l 96 38 z "},"‹":{"ha":544,"x_min":96,"x_max":449,"o":"m 449 38 l 96 260 l 96 358 l 449 581 l 449 475 l 157 292 l 157 328 l 449 142 l 449 38 z "},"›":{"ha":544,"x_min":96,"x_max":449,"o":"m 96 38 l 96 142 l 388 328 l 388 292 l 96 475 l 96 581 l 449 358 l 449 260 l 96 38 z "},"\"":{"ha":510,"x_min":75,"x_max":421,"o":"m 326 594 l 301 944 l 421 944 l 397 594 l 326 594 m 99 594 l 75 944 l 194 944 l 169 594 l 99 594 z "},"'":{"ha":240,"x_min":61,"x_max":181,"o":"m 85 594 l 61 944 l 181 944 l 156 594 l 85 594 z "},"":{"ha":1286,"x_min":0,"x_max":0,"o":""},"@":{"ha":1000,"x_min":69,"x_max":931,"o":"m 518 -112 q 340 -77 422 -112 q 197 22 258 -42 q 103 169 136 85 q 69 354 69 254 q 109 544 69 464 q 215 678 149 625 q 360 758 281 732 q 518 785 439 785 q 667 756 593 785 q 800 675 740 728 q 895 548 860 622 q 931 383 931 474 q 914 262 931 319 q 867 159 897 204 q 794 88 836 114 q 703 63 753 63 q 619 90 656 63 q 567 157 583 117 q 492 105 533 125 q 418 85 450 85 q 327 113 365 85 q 268 192 289 142 q 247 306 247 242 q 263 409 247 357 q 310 504 279 461 q 383 574 340 547 q 481 600 426 600 q 563 572 529 600 q 619 504 597 543 q 627 531 624 517 q 635 557 631 546 l 722 546 l 701 481 q 677 403 690 447 q 653 313 664 358 q 642 228 643 267 q 657 165 642 189 q 711 140 672 140 q 780 172 747 140 q 833 258 813 203 q 853 382 853 313 q 824 518 853 457 q 747 622 796 579 q 640 689 699 665 q 518 713 581 713 q 386 691 451 713 q 266 625 321 669 q 178 513 211 581 q 146 356 146 446 q 194 156 146 246 q 328 12 243 65 q 518 -42 413 -42 q 574 -35 544 -42 q 638 -17 604 -29 l 654 -85 q 585 -106 618 -99 q 518 -112 553 -112 m 424 167 q 491 189 449 167 q 557 251 533 211 q 568 313 557 271 q 589 389 579 354 q 544 492 576 458 q 481 525 513 525 q 413 491 446 525 q 358 404 379 457 q 336 296 336 351 q 364 196 336 225 q 424 167 392 167 z "},"&":{"ha":957,"x_min":90,"x_max":864,"o":"m 372 -17 q 219 21 282 -17 q 123 121 156 58 q 90 257 90 183 q 124 385 90 326 q 225 493 157 443 q 265 522 244 507 q 306 551 285 536 q 231 660 256 608 q 206 756 206 711 q 230 858 206 813 q 300 931 254 904 q 408 958 346 958 q 515 933 469 958 q 585 863 560 907 q 610 763 610 818 q 583 672 610 717 q 501 582 556 626 q 474 558 488 569 q 446 536 460 547 l 640 288 q 663 313 651 299 q 694 351 675 326 q 747 421 714 376 l 826 368 q 772 297 803 336 q 701 213 740 258 l 864 0 l 736 -3 l 633 132 q 556 63 599 97 q 467 6 514 29 q 372 -17 421 -17 m 358 83 q 439 106 397 83 q 528 171 481 128 q 551 193 539 182 q 572 214 563 204 l 365 479 q 298 428 326 450 q 254 390 269 406 q 203 324 219 356 q 186 264 186 293 q 209 177 186 218 q 271 110 232 136 q 358 83 310 83 m 389 599 q 431 628 406 610 q 475 665 457 647 q 508 711 497 688 q 519 761 519 735 q 486 841 519 811 q 408 874 453 871 q 358 865 385 875 q 314 829 332 854 q 296 758 296 804 q 311 697 296 728 q 357 635 326 667 q 374 617 365 625 q 389 599 382 608 z "},"¶":{"ha":722,"x_min":67,"x_max":572,"o":"m 364 0 l 364 289 q 213 343 281 301 q 106 451 146 385 q 67 600 67 517 q 109 756 67 686 q 223 868 151 826 q 381 910 294 910 l 572 910 l 572 0 l 513 0 l 513 850 l 425 850 l 425 0 l 364 0 z "},"§":{"ha":565,"x_min":39,"x_max":524,"o":"m 282 261 l 288 342 q 362 353 332 342 q 406 386 392 364 q 421 442 421 408 q 397 493 421 471 q 325 531 374 515 q 273 546 304 538 q 210 564 242 554 q 151 585 178 574 q 83 639 108 606 q 57 719 57 672 q 88 823 57 782 q 167 884 118 864 q 274 904 217 904 q 419 869 360 904 q 500 739 479 833 l 396 739 q 369 790 386 771 q 328 816 353 808 q 271 824 304 824 q 194 806 229 824 q 160 743 160 788 q 190 680 160 699 q 254 650 221 661 q 302 638 271 646 q 368 620 333 631 q 429 597 403 610 q 500 539 476 575 q 524 454 524 503 q 491 344 524 386 q 403 281 458 301 q 282 261 349 261 m 289 -14 q 143 22 203 -14 q 63 151 83 57 l 167 151 q 193 101 176 119 q 235 74 210 82 q 292 67 260 67 q 368 85 333 67 q 403 147 403 104 q 372 211 403 192 q 308 240 342 231 q 261 252 293 244 q 194 270 229 260 q 133 293 160 281 q 63 351 86 315 q 39 436 39 388 q 72 547 39 504 q 160 609 104 589 q 281 629 215 629 l 275 549 q 201 538 231 549 q 156 504 171 526 q 142 449 142 482 q 166 397 142 419 q 238 360 190 375 q 290 344 258 353 q 353 327 321 336 q 411 306 386 318 q 481 252 456 285 q 506 171 506 219 q 475 67 506 108 q 395 6 444 26 q 289 -14 346 -14 z "},"©":{"ha":1038,"x_min":65,"x_max":971,"o":"m 518 0 q 343 34 425 0 q 199 128 261 68 q 101 267 136 188 q 65 438 65 346 q 81 544 65 486 q 132 661 97 603 q 219 767 167 719 q 347 844 272 815 q 518 874 421 874 q 628 858 568 874 q 749 810 689 843 q 859 726 808 778 q 940 603 910 675 q 971 438 971 532 q 942 289 971 365 q 856 147 913 213 q 714 40 799 81 q 518 0 629 0 m 515 206 q 396 236 451 206 q 307 320 340 267 q 274 439 274 374 q 306 558 274 506 q 394 642 339 611 q 515 674 450 674 q 588 664 554 674 q 650 636 622 654 q 700 593 678 618 q 736 539 722 568 l 653 539 q 594 585 628 569 q 515 600 560 600 q 431 577 468 600 q 373 518 394 554 q 351 439 351 482 q 371 365 351 401 q 429 303 390 328 q 525 279 468 279 q 597 294 565 279 q 651 338 628 308 l 735 338 q 693 280 717 304 q 642 239 669 256 q 583 214 615 222 q 515 206 551 206 m 518 85 q 702 131 619 85 q 834 258 785 178 q 883 438 883 338 q 834 617 883 538 q 702 742 785 696 q 518 789 619 789 q 332 740 414 789 q 202 612 250 692 q 154 438 154 532 q 202 261 154 342 q 333 133 250 181 q 518 85 415 85 z "},"®":{"ha":1038,"x_min":67,"x_max":971,"o":"m 518 11 q 335 47 418 11 q 192 146 253 83 q 99 288 132 208 q 67 451 67 367 q 101 623 67 543 q 199 763 136 703 q 343 856 261 822 q 518 890 425 890 q 628 875 568 890 q 749 826 689 860 q 859 742 808 793 q 940 618 910 690 q 971 451 971 546 q 942 302 971 379 q 856 159 913 225 q 714 52 799 93 q 518 11 629 11 m 518 99 q 702 145 619 99 q 834 272 785 192 q 883 451 883 351 q 834 631 883 551 q 702 756 785 710 q 518 803 619 803 q 332 754 414 803 q 202 626 250 706 q 154 451 154 546 q 202 275 154 356 q 333 147 250 194 q 518 99 415 99 m 385 233 l 385 668 l 528 668 q 607 653 575 668 q 656 612 639 639 q 674 544 674 585 q 655 480 674 518 q 588 426 636 442 l 694 233 l 613 233 l 525 415 l 456 415 l 456 233 l 385 233 m 456 479 l 522 479 q 582 497 560 479 q 604 544 604 514 q 582 593 604 575 q 522 611 560 611 l 456 611 l 456 479 z "},"™":{"ha":1082,"x_min":33,"x_max":1049,"o":"m 413 469 l 506 944 l 611 944 l 731 557 l 850 944 l 956 944 l 1049 469 l 960 469 l 889 868 l 772 469 l 689 469 l 571 868 l 501 469 l 413 469 m 178 469 l 178 878 l 33 878 l 33 944 l 401 944 l 401 878 l 256 878 l 256 469 l 178 469 z "},"°":{"ha":639,"x_min":90,"x_max":549,"o":"m 319 533 q 202 559 254 533 q 120 631 150 585 q 90 740 90 678 q 121 848 90 801 q 203 921 151 894 q 319 947 256 947 q 435 922 383 947 q 517 849 486 896 q 549 740 549 803 q 519 633 549 679 q 439 560 490 586 q 319 533 388 533 m 319 608 q 380 618 350 608 q 431 656 410 628 q 451 739 451 685 q 433 815 451 786 q 384 856 414 843 q 319 869 354 869 q 247 853 276 869 q 202 807 217 836 q 188 739 188 778 q 202 667 188 696 q 246 623 217 638 q 319 608 275 608 z "},"|":{"ha":403,"x_min":164,"x_max":240,"o":"m 164 -312 l 164 1007 l 240 1007 l 240 -312 l 164 -312 z "},"₿":{"ha":846,"x_min":104,"x_max":776,"o":"m 104 0 l 104 944 l 415 944 q 571 917 506 944 q 672 841 636 890 q 707 724 707 792 q 697 642 707 682 q 662 571 686 603 q 596 521 638 539 q 695 468 656 506 q 756 378 735 431 q 776 264 776 326 q 735 126 776 185 q 619 33 693 67 q 449 0 546 0 l 104 0 m 225 -162 l 225 67 l 325 67 l 325 -162 l 225 -162 m 400 -162 l 400 67 l 500 67 l 500 -162 l 400 -162 m 201 93 l 476 93 q 623 145 567 93 q 679 282 679 197 q 653 373 679 333 q 585 436 628 413 q 492 460 543 460 l 201 460 l 201 93 m 201 557 l 443 557 q 562 592 514 557 q 610 708 610 628 q 561 816 610 781 q 415 851 513 851 l 201 851 l 201 557 m 225 878 l 225 1107 l 325 1107 l 325 878 l 225 878 m 400 878 l 400 1107 l 500 1107 l 500 878 l 400 878 z "},"¢":{"ha":724,"x_min":56,"x_max":668,"o":"m 360 165 q 250 189 304 165 q 152 255 196 213 q 82 356 108 297 q 56 485 56 414 q 97 644 56 572 q 210 760 139 717 q 368 803 281 803 q 497 775 436 803 q 603 695 557 747 q 668 571 649 643 l 563 571 q 485 666 538 631 q 378 701 432 701 q 267 674 318 701 q 186 599 217 647 q 156 485 156 550 q 183 376 156 426 q 260 297 211 326 q 368 267 308 267 q 476 297 426 267 q 553 379 525 328 l 663 379 q 593 263 639 311 q 488 190 547 215 q 360 165 428 165 m 199 0 l 426 944 l 531 944 l 303 0 l 199 0 z "},"$":{"ha":819,"x_min":51,"x_max":785,"o":"m 422 -18 q 240 11 318 -18 q 113 97 161 40 q 51 232 65 153 l 175 232 q 212 151 183 185 q 294 100 240 118 q 431 79 347 82 q 528 92 483 79 q 606 126 572 104 q 658 180 639 149 q 676 249 676 211 q 653 320 676 290 q 597 369 631 350 q 528 401 563 389 q 471 418 493 413 l 394 438 q 288 469 343 451 q 185 514 232 486 q 108 587 138 542 q 79 700 79 632 q 124 842 79 785 q 248 930 169 900 q 426 960 326 960 q 588 931 522 960 q 691 852 653 901 q 742 742 729 803 l 631 742 q 563 837 619 807 q 428 867 506 867 q 304 851 358 867 q 219 803 250 835 q 188 719 188 771 q 218 631 188 665 q 296 577 249 597 q 394 543 343 557 l 471 525 q 593 488 536 510 q 693 436 650 467 q 760 363 736 406 q 785 261 785 319 q 688 55 785 128 q 422 -18 592 -18 m 385 -97 l 385 1042 l 485 1042 l 485 -97 l 385 -97 z "},"€":{"ha":1176,"x_min":49,"x_max":1121,"o":"m 683 -14 q 499 24 585 -14 q 349 130 414 63 q 249 285 285 197 q 213 471 213 372 q 247 656 213 568 q 346 811 282 743 q 496 918 410 879 q 683 957 582 957 q 868 919 782 957 q 1019 815 954 882 q 1119 657 1085 747 l 1013 657 q 867 808 957 760 q 669 857 776 857 q 549 831 611 857 q 431 756 486 806 q 343 634 376 706 q 310 471 310 563 q 339 322 310 392 q 419 199 368 251 q 538 116 471 146 q 683 86 606 86 q 879 143 792 86 q 1014 289 967 200 l 1121 289 q 1020 131 1086 199 q 867 24 954 63 q 683 -14 781 -14 m 49 524 l 76 603 l 653 603 l 625 524 l 49 524 m 49 342 l 76 421 l 653 421 l 625 342 l 49 342 z "},"£":{"ha":733,"x_min":69,"x_max":678,"o":"m 203 443 l 69 443 l 69 540 l 203 540 l 203 633 q 217 808 203 738 q 259 921 231 879 q 334 981 288 963 q 444 999 381 999 l 503 999 l 503 901 l 446 901 q 382 892 408 901 q 340 854 356 882 q 317 773 324 826 q 310 633 310 719 l 310 540 l 500 540 l 500 443 l 308 443 l 308 183 q 299 132 311 153 q 267 97 288 111 l 678 97 l 678 0 l 69 0 l 69 100 q 167 122 131 99 q 203 204 204 144 l 203 443 z "},"¥":{"ha":840,"x_min":14,"x_max":826,"o":"m 186 414 l 186 493 l 651 493 l 651 414 l 186 414 m 186 204 l 186 283 l 651 283 l 651 204 l 186 204 m 372 0 l 372 444 l 14 944 l 139 944 l 421 540 l 703 944 l 826 944 l 469 444 l 469 0 l 372 0 z "},"+":{"ha":639,"x_min":67,"x_max":574,"o":"m 271 47 l 271 253 l 67 253 l 67 349 l 271 349 l 271 554 l 368 554 l 368 349 l 574 349 l 574 253 l 368 253 l 368 47 l 271 47 z "},"−":{"ha":639,"x_min":94,"x_max":546,"o":"m 94 254 l 94 351 l 546 351 l 546 254 l 94 254 z "},"×":{"ha":639,"x_min":76,"x_max":563,"o":"m 144 65 l 76 133 l 250 308 l 76 483 l 144 553 l 319 378 l 494 553 l 563 483 l 389 308 l 563 133 l 494 65 l 319 240 l 144 65 z "},"÷":{"ha":639,"x_min":86,"x_max":551,"o":"m 86 261 l 86 358 l 551 358 l 551 261 l 86 261 m 328 17 q 274 39 296 17 q 251 93 251 61 q 274 148 251 125 q 328 171 296 171 q 383 148 360 171 q 406 93 406 125 q 383 39 406 61 q 328 17 360 17 m 328 439 q 274 461 296 439 q 251 515 251 483 q 274 570 251 547 q 328 593 296 593 q 383 570 360 593 q 406 515 406 547 q 383 461 406 483 q 328 439 360 439 z "},"=":{"ha":639,"x_min":93,"x_max":544,"o":"m 93 385 l 93 481 l 544 481 l 544 385 l 93 385 m 93 133 l 93 229 l 544 229 l 544 133 l 93 133 z "},"≠":{"ha":639,"x_min":64,"x_max":603,"o":"m 93 385 l 93 481 l 544 481 l 544 385 l 93 385 m 93 133 l 93 229 l 544 229 l 544 133 l 93 133 m 64 -85 l 507 742 l 603 742 l 158 -85 l 64 -85 z "},">":{"ha":717,"x_min":63,"x_max":654,"o":"m 63 -25 l 63 78 l 593 335 l 593 299 l 63 556 l 63 660 l 654 367 l 654 268 l 63 -25 z "},"<":{"ha":717,"x_min":63,"x_max":654,"o":"m 654 -24 l 63 269 l 63 368 l 654 661 l 654 558 l 124 301 l 124 338 l 654 81 l 654 -24 z "},"≥":{"ha":639,"x_min":96,"x_max":547,"o":"m 96 186 l 96 289 l 485 475 l 485 439 l 96 625 l 96 729 l 546 507 l 546 408 l 96 186 m 96 32 l 96 129 l 547 129 l 547 32 l 96 32 z "},"≤":{"ha":639,"x_min":96,"x_max":547,"o":"m 546 188 l 96 410 l 96 508 l 546 731 l 546 628 l 157 442 l 157 478 l 546 292 l 546 188 m 96 32 l 96 129 l 547 129 l 547 32 l 96 32 z "},"±":{"ha":667,"x_min":76,"x_max":583,"o":"m 96 32 l 96 129 l 547 129 l 547 32 l 96 32 m 281 179 l 281 385 l 76 385 l 76 481 l 281 481 l 281 686 l 378 686 l 378 481 l 583 481 l 583 385 l 378 385 l 378 179 l 281 179 z "},"~":{"ha":731,"x_min":106,"x_max":625,"o":"m 178 882 l 106 929 q 132 970 115 949 q 169 1012 149 992 q 210 1044 189 1032 q 250 1057 232 1057 q 327 1041 290 1057 q 399 1010 364 1025 q 467 994 433 994 q 495 1003 481 994 q 524 1028 510 1011 q 551 1071 538 1046 l 625 1025 q 594 985 613 1006 q 555 945 576 964 q 511 915 533 926 q 465 904 489 904 q 399 919 432 904 q 333 950 367 935 q 261 965 300 965 q 233 956 247 965 q 206 928 219 947 q 178 882 192 910 z "},"^":{"ha":813,"x_min":82,"x_max":732,"o":"m 82 476 l 335 943 l 478 943 l 732 476 l 625 476 l 407 881 l 189 476 l 82 476 z "},"%":{"ha":1001,"x_min":60,"x_max":942,"o":"m 192 0 l 710 944 l 813 944 l 292 0 l 192 0 m 760 -14 q 684 1 718 -14 q 626 44 650 17 q 589 108 601 72 q 576 182 576 143 q 589 255 576 219 q 624 318 601 290 q 682 363 647 346 q 760 379 717 379 q 835 363 801 379 q 893 319 869 347 q 929 256 917 292 q 942 182 942 221 q 930 109 942 144 q 894 46 918 74 q 838 2 871 18 q 760 -14 804 -14 m 760 63 q 829 95 806 63 q 853 168 853 128 q 846 233 853 201 q 819 283 839 264 q 760 303 800 303 q 705 287 725 303 q 676 243 685 271 q 667 182 667 215 q 690 95 667 128 q 760 63 713 63 m 242 564 q 165 580 199 564 q 107 624 131 596 q 72 687 83 651 q 60 760 60 722 q 72 834 60 799 q 108 897 85 869 q 166 941 132 925 q 242 957 200 957 q 320 940 286 957 q 377 896 354 924 q 413 833 400 868 q 425 760 425 797 q 413 686 425 721 q 376 624 400 651 q 317 580 351 596 q 242 564 283 564 m 242 640 q 312 674 289 640 q 335 744 335 707 q 329 806 335 775 q 304 859 324 838 q 243 881 285 881 q 191 866 213 881 q 159 828 169 851 q 149 775 149 804 q 167 680 149 719 q 242 640 186 640 z "},"̈":{"ha":0,"x_min":147,"x_max":496,"o":"m 433 1042 q 390 1060 407 1042 q 372 1104 372 1078 q 390 1148 372 1131 q 433 1165 407 1165 q 478 1148 460 1165 q 496 1104 496 1131 q 478 1060 496 1078 q 433 1042 460 1042 m 208 1042 q 165 1060 182 1042 q 147 1104 147 1078 q 165 1148 147 1131 q 208 1165 182 1165 q 253 1148 235 1165 q 271 1104 271 1131 q 253 1060 271 1078 q 208 1042 235 1042 z "},"̇":{"ha":0,"x_min":97,"x_max":221,"o":"m 160 717 q 115 735 133 717 q 97 779 97 753 q 115 822 97 804 q 160 840 133 840 q 203 822 185 840 q 221 779 221 804 q 203 735 221 753 q 160 717 185 717 z "},"̀":{"ha":0,"x_min":0,"x_max":231,"o":"m 153 1042 l 0 1240 l 106 1240 l 231 1042 l 153 1042 z "},"́":{"ha":0,"x_min":28,"x_max":244,"o":"m 28 1042 l 139 1228 l 244 1228 l 106 1042 l 28 1042 z "},"̋":{"ha":0,"x_min":56,"x_max":392,"o":"m 56 1042 l 139 1240 l 238 1240 l 126 1042 l 56 1042 m 210 1042 l 293 1240 l 392 1240 l 281 1042 l 210 1042 z "},"̂":{"ha":0,"x_min":14,"x_max":411,"o":"m 14 1042 l 167 1226 l 258 1226 l 411 1042 l 313 1042 l 200 1179 l 225 1179 l 113 1042 l 14 1042 z "},"̌":{"ha":0,"x_min":42,"x_max":439,"o":"m 194 1043 l 42 1228 l 140 1228 l 253 1076 l 228 1076 l 340 1228 l 439 1228 l 286 1043 l 194 1043 z "},"̆":{"ha":0,"x_min":46,"x_max":435,"o":"m 435 1222 q 409 1135 435 1176 q 339 1068 383 1094 q 240 1042 294 1042 q 146 1067 190 1042 q 74 1133 101 1092 q 46 1222 46 1175 l 147 1222 q 176 1155 147 1185 q 244 1125 204 1125 q 292 1139 271 1125 q 325 1175 313 1153 q 338 1222 338 1197 l 435 1222 z "},"̊":{"ha":0,"x_min":56,"x_max":369,"o":"m 213 944 q 136 964 172 944 q 78 1018 100 983 q 56 1096 56 1053 q 77 1174 56 1139 q 134 1229 99 1208 q 213 1250 169 1250 q 290 1231 254 1250 q 347 1176 325 1211 q 369 1096 369 1142 q 324 988 369 1032 q 213 944 278 944 m 214 1025 q 267 1046 246 1025 q 288 1097 288 1067 q 266 1148 288 1128 q 213 1168 244 1168 q 159 1148 181 1168 q 138 1097 138 1128 q 160 1046 138 1067 q 214 1025 183 1025 z "},"̃":{"ha":0,"x_min":89,"x_max":551,"o":"m 418 997 q 355 1014 385 997 q 299 1053 325 1031 q 251 1093 274 1076 q 213 1110 229 1110 q 178 1094 190 1110 q 161 1056 165 1078 q 158 1014 157 1033 l 90 1014 q 103 1103 89 1064 q 148 1164 118 1142 q 222 1186 178 1186 q 288 1169 258 1186 q 344 1131 318 1153 q 389 1092 369 1108 q 421 1075 408 1075 q 458 1086 446 1075 q 474 1119 469 1097 q 478 1171 478 1140 l 546 1171 q 540 1087 551 1126 q 498 1022 528 1047 q 418 997 468 997 z "},"̄":{"ha":0,"x_min":117,"x_max":649,"o":"m 117 1042 l 117 1121 l 649 1121 l 649 1042 l 117 1042 z "},"̒":{"ha":0,"x_min":82,"x_max":250,"o":"m 207 986 l 247 933 q 200 890 226 918 q 167 832 174 861 l 169 832 q 226 810 201 832 q 250 754 250 789 q 239 714 250 732 q 210 685 228 696 q 169 675 192 675 q 104 705 126 675 q 82 786 82 735 q 99 862 82 825 q 146 931 117 899 q 207 986 175 963 z "},"̦":{"ha":0,"x_min":60,"x_max":276,"o":"m 60 -251 l 171 -65 l 276 -65 l 138 -251 l 60 -251 z "},"̧":{"ha":0,"x_min":182,"x_max":524,"o":"m 182 -321 l 217 -249 q 277 -265 247 -258 q 335 -271 307 -271 q 413 -256 381 -271 q 446 -197 446 -240 q 419 -148 446 -165 q 354 -131 392 -131 q 306 -135 331 -131 q 258 -143 281 -140 l 350 60 l 428 61 l 368 -64 q 404 -62 369 -62 q 486 -98 449 -62 q 524 -199 524 -133 q 495 -286 524 -253 q 424 -335 467 -319 q 335 -350 381 -350 q 258 -342 299 -350 q 182 -321 218 -335 z "},"̨":{"ha":0,"x_min":438,"x_max":608,"o":"m 532 -194 q 485 -183 507 -194 q 451 -153 464 -172 q 438 -114 438 -135 q 455 -49 438 -81 q 499 3 472 -18 l 579 3 q 535 -43 553 -17 q 517 -89 517 -69 q 529 -114 517 -107 q 551 -121 542 -121 q 577 -113 560 -121 q 607 -96 594 -106 l 608 -172 q 574 -189 594 -183 q 532 -194 554 -194 z "},"¨":{"ha":654,"x_min":147,"x_max":496,"o":"m 433 1042 q 390 1060 407 1042 q 372 1104 372 1078 q 390 1148 372 1131 q 433 1165 407 1165 q 478 1148 460 1165 q 496 1104 496 1131 q 478 1060 496 1078 q 433 1042 460 1042 m 208 1042 q 165 1060 182 1042 q 147 1104 147 1078 q 165 1148 147 1131 q 208 1165 182 1165 q 253 1148 235 1165 q 271 1104 271 1131 q 253 1060 271 1078 q 208 1042 235 1042 z "},"˙":{"ha":318,"x_min":97,"x_max":221,"o":"m 160 717 q 115 735 133 717 q 97 779 97 753 q 115 822 97 804 q 160 840 133 840 q 203 822 185 840 q 221 779 221 804 q 203 735 221 753 q 160 717 185 717 z "},"`":{"ha":328,"x_min":0,"x_max":231,"o":"m 153 1042 l 0 1240 l 106 1240 l 231 1042 l 153 1042 z "},"´":{"ha":342,"x_min":28,"x_max":244,"o":"m 28 1042 l 139 1228 l 244 1228 l 106 1042 l 28 1042 z "},"˝":{"ha":447,"x_min":56,"x_max":392,"o":"m 56 1042 l 139 1240 l 238 1240 l 126 1042 l 56 1042 m 210 1042 l 293 1240 l 392 1240 l 281 1042 l 210 1042 z "},"ˆ":{"ha":508,"x_min":14,"x_max":411,"o":"m 14 1042 l 167 1226 l 258 1226 l 411 1042 l 313 1042 l 200 1179 l 225 1179 l 113 1042 l 14 1042 z "},"ˇ":{"ha":481,"x_min":42,"x_max":439,"o":"m 194 1043 l 42 1228 l 140 1228 l 253 1076 l 228 1076 l 340 1228 l 439 1228 l 286 1043 l 194 1043 z "},"˘":{"ha":833,"x_min":46,"x_max":435,"o":"m 435 1222 q 409 1135 435 1176 q 339 1068 383 1094 q 240 1042 294 1042 q 146 1067 190 1042 q 74 1133 101 1092 q 46 1222 46 1175 l 147 1222 q 176 1155 147 1185 q 244 1125 204 1125 q 292 1139 271 1125 q 325 1175 313 1153 q 338 1222 338 1197 l 435 1222 z "},"˚":{"ha":425,"x_min":56,"x_max":369,"o":"m 213 944 q 136 964 172 944 q 78 1018 100 983 q 56 1096 56 1053 q 77 1174 56 1139 q 134 1229 99 1208 q 213 1250 169 1250 q 290 1231 254 1250 q 347 1176 325 1211 q 369 1096 369 1142 q 324 988 369 1032 q 213 944 278 944 m 214 1025 q 267 1046 246 1025 q 288 1097 288 1067 q 266 1148 288 1128 q 213 1168 244 1168 q 159 1148 181 1168 q 138 1097 138 1128 q 160 1046 138 1067 q 214 1025 183 1025 z "},"˜":{"ha":654,"x_min":89,"x_max":551,"o":"m 418 997 q 355 1014 385 997 q 299 1053 325 1031 q 251 1093 274 1076 q 213 1110 229 1110 q 178 1094 190 1110 q 161 1056 165 1078 q 158 1014 157 1033 l 90 1014 q 103 1103 89 1064 q 148 1164 118 1142 q 222 1186 178 1186 q 288 1169 258 1186 q 344 1131 318 1153 q 389 1092 369 1108 q 421 1075 408 1075 q 458 1086 446 1075 q 474 1119 469 1097 q 478 1171 478 1140 l 546 1171 q 540 1087 551 1126 q 498 1022 528 1047 q 418 997 468 997 z "},"¯":{"ha":765,"x_min":117,"x_max":649,"o":"m 117 1042 l 117 1121 l 649 1121 l 649 1042 l 117 1042 z "},"¸":{"ha":757,"x_min":182,"x_max":524,"o":"m 182 -321 l 217 -249 q 277 -265 247 -258 q 335 -271 307 -271 q 413 -256 381 -271 q 446 -197 446 -240 q 419 -148 446 -165 q 354 -131 392 -131 q 306 -135 331 -131 q 258 -143 281 -140 l 350 60 l 428 61 l 368 -64 q 404 -62 369 -62 q 486 -98 449 -62 q 524 -199 524 -133 q 495 -286 524 -253 q 424 -335 467 -319 q 335 -350 381 -350 q 258 -342 299 -350 q 182 -321 218 -335 z "},"˛":{"ha":833,"x_min":438,"x_max":608,"o":"m 532 -194 q 485 -183 507 -194 q 451 -153 464 -172 q 438 -114 438 -135 q 455 -49 438 -81 q 499 3 472 -18 l 579 3 q 535 -43 553 -17 q 517 -89 517 -69 q 529 -114 517 -107 q 551 -121 542 -121 q 577 -113 560 -121 q 607 -96 594 -106 l 608 -172 q 574 -189 594 -183 q 532 -194 554 -194 z "}}}
